<?xml version="1.0" standalone="no"?>
<!DOCTYPE svg PUBLIC "-//W3C//DTD SVG 1.1//EN" "http://www.w3.org/Graphics/SVG/1.1/DTD/svg11.dtd" >
<svg xmlns="http://www.w3.org/2000/svg">
<metadata>
Created by FontPrep 20130207 at Wed Jul  2 11:26:44 2014
 By Steaw
Copyright (c) 2008 BNP Paribas
</metadata>
<defs>
<font id="18ad429099570e4081b83d1154b7aa6b" horiz-adv-x='1024' >
  <font-face 
    font-family="BNPPSans-Italic"
    font-weight="400"
    font-style="italic"
    font-stretch="normal"
    units-per-em="2048"
    panose-1="2 0 0 0 0 0 0 0 0 0"
    ascent="1546"
    descent="-502"
    x-height="1087"
    cap-height="1434"
    bbox="-362 -494 2084.66 2111"
    underline-thickness="102"
    underline-position="-102"
    unicode-range="U+0020-FB04"
  />
<missing-glyph horiz-adv-x="1024" 
d="M190 162h400l219 1038h-399zM1008 1362l-289 -1362h-727l289 1362h727z" />
    <glyph glyph-name="f_i" unicode="fi" horiz-adv-x="1198" 
d="M1184 1475l-51 -242h-224l52 242h223zM-142 -272q50 0 81.5 25.5t46.5 86.5l225 1067h-152l39 180h152l16 74q39 191 165 283t304 92q113 0 199 -35l-78 -180q-63 27 -144 27q-181 0 -223 -181l-16 -80h629l-232 -1087h-223l193 907h-406l-235 -1110
q-26 -127 -118.5 -197.5t-209.5 -70.5t-205 55l72 178q70 -34 120 -34z" />
    <glyph glyph-name="f_l" unicode="fl" horiz-adv-x="1261" 
d="M936 191.5q18 -13.5 62 -13.5t130 45l-24 -198q-91 -52 -204 -52q-114 0 -170 65.5t-28 203.5l265 1253l233 41l-272 -1286q-10 -45 8 -58.5zM-142 -272q50 0 81.5 25.5t46.5 86.5l225 1067h-152l39 180h152l16 74q39 191 165 283t304 92q113 0 199 -35l-78 -180
q-63 27 -144 27q-181 0 -223 -181l-16 -80h268l-65 -180h-242l-235 -1110q-26 -127 -118.5 -197.5t-209.5 -70.5t-205 55l72 178q70 -34 120 -34z" />
    <glyph glyph-name=".notdef" horiz-adv-x="1024" 
d="M190 162h400l219 1038h-399zM1008 1362l-289 -1362h-727l289 1362h727z" />
    <glyph glyph-name=".null" horiz-adv-x="0" 
 />
    <glyph glyph-name="nonmarkingreturn" horiz-adv-x="503" 
 />
    <glyph glyph-name="space" unicode=" " horiz-adv-x="548" 
 />
    <glyph glyph-name="space" unicode="&#xa0;" horiz-adv-x="548" 
 />
    <glyph glyph-name="exclam" unicode="!" horiz-adv-x="591" 
d="M309 238l-51 -238h-235l51 238h235zM567 1434l-237 -1049h-211l209 1049h239z" />
    <glyph glyph-name="quotedbl" unicode="&#x22;" horiz-adv-x="876" 
d="M883 1434l-105 -486h-203l105 486h203zM487 1434l-104 -486h-203l105 486h202z" />
    <glyph glyph-name="numbersign" unicode="#" horiz-adv-x="1265" 
d="M426 541h274l136 348h-275zM199 1067h241l142 367h192l-141 -367h272l142 367h192l-141 -367h241l-71 -178h-240l-135 -348h240l-68 -176h-242l-141 -365h-193l142 365h-273l-141 -365h-192l141 365h-240l68 176h239l136 348h-242z" />
    <glyph glyph-name="dollar" unicode="$" 
d="M474.5 1093.5q-68.5 -45.5 -78.5 -118.5q-9 -74 29 -114t99.5 -69.5t134 -57t174 -93.5t87.5 -229t-134.5 -257t-293.5 -116l-48 -219h-176l49 223q-104 12 -193 61.5t-138 128.5l116 166q49 -78 139.5 -122t160.5 -44q242 0 268 143q12 70 -25 106t-97.5 64.5t-235 97
t-146.5 308.5q19 167 138 259t284 114l47 211h176l-47 -217q158 -29 213.5 -135t36.5 -250l-217 -31q14 103 -20 169.5t-134 66.5t-168.5 -45.5z" />
    <glyph glyph-name="percent" unicode="%" horiz-adv-x="1542" 
d="M994 -27q-96 0 -161 76t-42 236q38 295 160.5 352t220.5 57t162.5 -75.5t41.5 -235.5q-38 -295 -162 -352.5t-220 -57.5zM1042 127q57 0 102.5 55.5t61.5 184.5q16 98 -4 136t-78 38t-102.5 -54.5t-60.5 -183.5q-16 -98 4 -137t77 -39zM366 739q-98 0 -162.5 76
t-39.5 238q38 295 161.5 351t206.5 56q113 2 176.5 -73.5t39.5 -237.5q-39 -295 -161.5 -352.5t-220.5 -57.5zM1475 1434l-1217 -1434h-190l1214 1434h193zM415 893q56 0 102.5 55.5t62.5 169.5t-4.5 152.5t-77.5 38.5t-102.5 -55.5t-61.5 -184.5q-16 -98 4.5 -137t76.5 -39
z" />
    <glyph glyph-name="ampersand" unicode="&#x26;" horiz-adv-x="1245" 
d="M827 1137q0 118 -167 118q-88 0 -140.5 -56.5t-52.5 -150.5t84 -190q145 59 210.5 122.5t65.5 156.5zM418 178q183 0 282 109l-264 327q-111 -54 -171 -117t-60 -155t63.5 -128t149.5 -36zM1116 668.5q0 -11.5 -4 -21.5q-33 -172 -137 -332l254 -315h-289l-123 143
q-179 -170 -428 -170q-196 0 -307 90t-111 234q0 232 139.5 332t217.5 135q-99 141 -99 299q0 157 128.5 277t361.5 120q160 0 250 -83.5t90 -211.5q0 -221 -160 -320.5t-240 -133.5l195 -240q46 78 76 219h190q-4 -10 -4 -21.5z" />
    <glyph glyph-name="quotesingle" unicode="'" horiz-adv-x="481" 
d="M487 1434l-104 -486h-203l105 486h202z" />
    <glyph glyph-name="parenleft" unicode="(" horiz-adv-x="700" 
d="M113 576q113 555 583 960h232q-221 -189 -385.5 -421.5t-227.5 -536.5t1.5 -608.5t179.5 -461.5h-207q-110 173 -176 459.5t0 608.5z" />
    <glyph glyph-name="parenright" unicode=")" horiz-adv-x="700" 
d="M512 468q-114 -559 -584 -959h-231q508 435 612 962q63 304 -2 607t-178 458h207q110 -173 167 -421q75 -324 9 -647z" />
    <glyph glyph-name="asterisk" unicode="*" horiz-adv-x="1003" 
d="M416 680l65 266l-293 -162l-47 140l305 141l-245 139l104 125l223 -162l50 267h151l-65 -267l292 162l48 -139l-306 -141l246 -140l-104 -125l-224 162l-49 -266h-151z" />
    <glyph glyph-name="plus" unicode="+" 
d="M727 1100l-68 -322h322l-43 -194h-322l-67 -322h-195l68 322h-320l43 194h320l67 322h195z" />
    <glyph glyph-name="comma" unicode="," horiz-adv-x="481" 
d="M309 238l-305 -508h-199l258 508h246z" />
    <glyph glyph-name="hyphen" unicode="-" horiz-adv-x="854" 
d="M666 584h-539l43 194h539z" />
    <glyph glyph-name="period" unicode="." horiz-adv-x="481" 
d="M256 238l-51 -238h-236l51 238h236z" />
    <glyph glyph-name="slash" unicode="/" horiz-adv-x="757" 
d="M891 1434l-828 -1434h-196l823 1434h201z" />
    <glyph glyph-name="zero" unicode="0" 
d="M655 1255q-250 0 -366 -540q-88 -419 -5 -478t178.5 -59t186 130t148.5 411q89 422 4 479t-146 57zM1006.5 1278.5q92.5 -181.5 19.5 -559.5q-110 -578 -322 -662t-316 -84q-212 0 -306.5 181t-25.5 559q68 378 240.5 562.5t395.5 184.5q222 0 314.5 -181.5z" />
    <glyph glyph-name="one" unicode="1" 
d="M39 205h332l207 971l-367 -168l51 231l416 195h184l-262 -1229h297l-43 -205h-856z" />
    <glyph glyph-name="two" unicode="2" 
d="M632 1460q197 0 302.5 -95.5t105.5 -244.5t-79.5 -276t-227.5 -262l-407 -371h565l-45 -211h-883l37 178l575 537q115 106 171.5 192.5t56.5 178.5t-51.5 130.5t-128.5 38.5q-219 0 -275 -243l-213 41q59 281 223 344t274 63z" />
    <glyph glyph-name="three" unicode="3" 
d="M430 178q106 0 183 57t102 169t-39 161t-187 49h-151l43 205h139q115 0 190.5 63.5t89.5 163.5t-28 154.5t-146 54.5t-173.5 -62.5t-94.5 -160.5l-208 43q38 171 163 278t329 107t326 -130.5t68 -297t-122 -220.5t-132 -79q209 -76 160 -342q-35 -199 -189.5 -308.5
t-369.5 -109.5q-139 0 -235.5 55.5t-151.5 123.5l106 180q49 -72 135.5 -113t192.5 -41z" />
    <glyph glyph-name="four" unicode="4" 
d="M229 532h381l140 648zM-18 528l720 906h320l-193 -902h168l-43 -202h-168l-69 -330h-219l69 330h-628z" />
    <glyph glyph-name="five" unicode="5" 
d="M523 883q195 0 297 -106t102 -269q0 -243 -148 -389t-395 -146q-139 2 -249 52.5t-159 126.5l107 180q49 -72 138 -113t173 -41q148 0 221.5 87.5t73.5 209.5q0 80 -51 141.5t-176 61.5t-226 -29l-100 78l150 707h774l-45 -220h-559l-72 -342q43 11 144 11z" />
    <glyph glyph-name="six" unicode="6" 
d="M635.5 264q77.5 88 77.5 236q0 96 -55.5 135t-130.5 39t-148.5 -22.5t-116.5 -57.5q-30 -168 -1 -293t163 -125t211.5 88zM582 870q246 0 302 -118t56 -234t-41 -223t-148.5 -214.5t-351.5 -107.5q-169 0 -272.5 126t-103.5 333q0 369 122 627t269 329.5t278 71.5
q180 0 272.5 -104.5t79.5 -276.5l-223 -45q0 107 -27.5 164t-142.5 57t-205 -110t-143 -352q114 77 279 77z" />
    <glyph glyph-name="seven" unicode="7" 
d="M1137 1434l-37 -177l-858 -1257h-254l841 1221h-653l45 213h916z" />
    <glyph glyph-name="eight" unicode="8" 
d="M657 1255q-219 0 -266 -217q-18 -90 29 -150.5t147.5 -60.5t174 60.5t94.5 160.5t-24.5 153.5t-154.5 53.5zM72.5 91q-101.5 118 -80.5 306q16 139 99 222t194 122q-147 95 -119 305q26 198 172 306t349 108t304.5 -115t73.5 -288q-23 -129 -86.5 -202t-167.5 -118
q194 -80 147 -355q-15 -87 -64.5 -167t-165.5 -161t-335 -81t-320.5 118zM457 625q-188 0 -236 -222q-34 -163 60 -194t147 -31q111 0 196 55.5t109.5 170t-32 168t-244.5 53.5z" />
    <glyph glyph-name="nine" unicode="9" 
d="M760 629q-119 -68 -273 -68t-255 81.5t-101 250.5q0 239 144 403t391 164q188 0 284.5 -112.5t100.5 -317.5q0 -146 -38 -331q-76 -368 -246.5 -547t-404.5 -179q-139 0 -236 49.5t-149 127.5l107 176q47 -72 131 -111t180 -39q129 0 222.5 112.5t142.5 340.5zM823 1004
q0 135 -45.5 193t-121.5 58q-136 0 -216 -88.5t-80 -228.5q0 -98 56.5 -140t129.5 -42q152 0 259 75q18 110 18 173z" />
    <glyph glyph-name="colon" unicode=":" horiz-adv-x="481" 
d="M436 1087l-51 -237h-235l51 237h235zM256 238l-51 -238h-236l51 238h236z" />
    <glyph glyph-name="semicolon" unicode=";" horiz-adv-x="481" 
d="M293 238l-320 -508h-184l258 508h246zM436 1087l-51 -237h-235l51 237h235z" />
    <glyph glyph-name="less" unicode="&#x3c;" 
d="M1001 883l-684 -211l596 -211l-41 -191l-774 289l52 242l897 289z" />
    <glyph glyph-name="equal" unicode="=" 
d="M983 791h-836l41 194h836zM891 354h-836l41 195h836z" />
    <glyph glyph-name="greater" unicode="&#x3e;" 
d="M82 477l684 211l-596 211l41 191l774 -289l-51 -242l-897 -289z" />
    <glyph glyph-name="question" unicode="?" horiz-adv-x="978" 
d="M764 1121q0 52 -32 93t-99 41q-114 0 -179 -67t-87 -154l-205 43q68 271 225.5 327t258.5 56q178 0 265.5 -85.5t87.5 -209.5q0 -204 -111.5 -303.5t-163.5 -139.5t-85 -67.5t-69.5 -80t-65.5 -191.5h-215q46 202 86.5 265t84.5 103t95 78t86 66.5t62.5 61t44 72.5
t16.5 92zM483 238l-49 -238h-235l49 238h235z" />
    <glyph glyph-name="at" unicode="@" horiz-adv-x="1607" 
d="M631 -199q-318 0 -441.5 145.5t-155.5 286t0 313.5q63 341 302 541.5t567 200.5t482.5 -194.5t101.5 -505.5q-37 -213 -157 -336t-276 -123t-186 119q-126 -105 -253 -105q-126 0 -196 104.5t-23 324.5t174 312.5t280 92.5t297 -100l-98 -459q-25 -113 79 -113
q66 0 123 78t83 204q54 256 -60 408t-382 152t-458 -159t-252 -444q-61 -284 67 -440.5t395 -156.5t468 94l18 -139q-217 -101 -499 -101zM687 315q40 0 88 29t85 68l76 358q-63 35 -113 35q-193 0 -239 -244q-43 -199 10 -222.5t93 -23.5z" />
    <glyph glyph-name="A" unicode="A" horiz-adv-x="1114" 
d="M328 537h385l-54 659zM729 338h-502l-170 -338h-235l739 1434h295l133 -1434h-233z" />
    <glyph glyph-name="B" unicode="B" horiz-adv-x="1163" 
d="M725 1434q198 0 305.5 -99t69.5 -291q-23 -113 -82.5 -188.5t-196.5 -120.5q249 -57 189 -338q-47 -217 -193.5 -307t-388.5 -90h-403l305 1434h395zM600 823q109 0 179.5 55.5t92.5 161.5t-26.5 147.5t-165.5 41.5h-172l-86 -406h178zM471 205q133 0 207 46t98 160
t-23.5 162t-193.5 48h-180l-90 -416h182z" />
    <glyph glyph-name="C" unicode="C" horiz-adv-x="1142" 
d="M551 178q176 0 369 109l-5 -211q-196 -103 -428 -103q-550 0 -401 761q74 376 246 551t442 175q203 0 289.5 -122.5t54.5 -307.5l-219 -26q14 115 -9.5 161.5t-61 68t-111.5 21.5q-158 0 -250.5 -121.5t-155.5 -412.5q-92 -440 30 -491.5t210 -51.5z" />
    <glyph glyph-name="D" unicode="D" horiz-adv-x="1302" 
d="M522 205q177 0 292.5 116t180.5 414q86 398 -42 446t-214 48h-223l-217 -1024h223zM799 1434q258 0 376.5 -172t45.5 -538q-72 -366 -263.5 -545t-470.5 -179h-454l305 1434h461z" />
    <glyph glyph-name="E" unicode="E" horiz-adv-x="1083" 
d="M1104 1434l-43 -205h-553l-84 -395h528l-45 -207h-528l-90 -422h581l-43 -205h-802l305 1434h774z" />
    <glyph glyph-name="F" unicode="F" horiz-adv-x="1042" 
d="M1118 1434l-43 -205h-567l-92 -428h485l-43 -205h-485l-127 -596h-221l305 1434h788z" />
    <glyph glyph-name="G" unicode="G" horiz-adv-x="1314" 
d="M529 178q152 0 337 121l56 272h-291l43 197h514l-164 -768h-205l19 84q-107 -73 -210.5 -92t-152.5 -19q-244 0 -354 188.5t4.5 743.5t701.5 555q221 0 323.5 -126t76.5 -306l-217 -24q14 113 -31 182t-206 69t-279 -122t-177 -400q-93 -435 17 -495t195 -60z" />
    <glyph glyph-name="H" unicode="H" horiz-adv-x="1384" 
d="M551 1434l-127 -600h586l127 600h221l-305 -1434h-222l134 621h-586l-133 -621h-221l305 1434h221z" />
    <glyph glyph-name="I" unicode="I" horiz-adv-x="577" 
d="M551 1434l-305 -1434h-221l305 1434h221z" />
    <glyph glyph-name="J" unicode="J" horiz-adv-x="624" 
d="M20 178q54 0 79.5 24.5t39.5 86.5l242 1145h223l-250 -1174q-31 -147 -109.5 -217t-204.5 -70t-202 60l76 186q52 -41 106 -41z" />
    <glyph glyph-name="K" unicode="K" horiz-adv-x="1171" 
d="M551 1434l-148 -699l650 699h256l-564 -603l275 -831h-244l-215 645l-227 -244l-86 -401h-223l305 1434h221z" />
    <glyph glyph-name="L" unicode="L" horiz-adv-x="940" 
d="M551 1434l-262 -1229h514l-43 -205h-735l305 1434h221z" />
    <glyph glyph-name="M" unicode="M" horiz-adv-x="1720" 
d="M836 115h-201l-137 925l-312 -1040h-229l434 1434h266l150 -985l555 985h270l-174 -1434h-229l131 1040z" />
    <glyph glyph-name="N" unicode="N" horiz-adv-x="1417" 
d="M545 1434l409 -1043l220 1043h217l-306 -1434h-213l-413 1034l-217 -1034h-217l305 1434h215z" />
    <glyph glyph-name="O" unicode="O" horiz-adv-x="1273" 
d="M351 1279.5q190 180.5 442 180.5q531 0 389 -739q-78 -389 -265.5 -568.5t-442.5 -179.5q-528 0 -386 740q73 386 263 566.5zM562.5 178q113.5 0 223.5 124t170 417q91 424 -22 480t-226.5 56t-222.5 -123t-172 -417q-91 -425 22.5 -481t227 -56z" />
    <glyph glyph-name="P" unicode="P" horiz-adv-x="1155" 
d="M518 483q-107 0 -166 15l-106 -498h-221l305 1434h385q479 0 399 -469q-65 -367 -277 -424.5t-319 -57.5zM530 688q154 0 240.5 59.5t118.5 211.5q33 153 -19.5 211.5t-197.5 58.5h-164l-111 -527q57 -14 133 -14z" />
    <glyph glyph-name="Q" unicode="Q" horiz-adv-x="1273" 
d="M562.5 178q113.5 0 223.5 124t170 417q91 424 -22 480t-226.5 56t-222.5 -123t-172 -417q-91 -425 22.5 -481t227 -56zM796 1460q528 0 386 -739q-87 -451 -253.5 -570.5t-252.5 -146.5l129 -352h-252l-96 321q-364 6 -386 272.5t17 469.5t110.5 345t207 271t390.5 129z
" />
    <glyph glyph-name="R" unicode="R" horiz-adv-x="1157" 
d="M557 737q135 0 215 56.5t110 196.5t-21 189.5t-195 49.5h-158l-102 -479q80 -13 151 -13zM490 539q-45 0 -128 10l-116 -549h-221l305 1434h381q473 0 403 -439q-29 -172 -117 -270t-196 -139l143 -586h-246l-120 545q-43 -6 -88 -6z" />
    <glyph glyph-name="S" unicode="S" horiz-adv-x="1099" 
d="M652 1255q-76 0 -144 -42t-88 -134q-28 -130 138 -241.5t219.5 -155t111 -121.5t31.5 -223q-35 -175 -170.5 -270t-346.5 -95q-129 0 -237.5 50.5t-177.5 148.5l114 172q61 -86 153.5 -127t249 -41t189.5 168q14 66 -22.5 115t-97 95t-133 94t-173 148.5t-71.5 285.5
t166 281.5t337 96.5t290 -123.5t67 -289.5l-213 -35q10 111 -14.5 156.5t-63 66t-114.5 20.5z" />
    <glyph glyph-name="T" unicode="T" horiz-adv-x="1110" 
d="M1214 1434l-43 -205h-397l-262 -1229h-221l262 1229h-395l43 205h1013z" />
    <glyph glyph-name="U" unicode="U" horiz-adv-x="1349" 
d="M560 178q154 0 240.5 77t119.5 230l200 949h221l-202 -955q-78 -367 -280 -436.5t-331 -69.5q-243 0 -352.5 142.5t-62.5 363.5l202 955h222l-201 -949q-31 -147 19.5 -227t204.5 -80z" />
    <glyph glyph-name="V" unicode="V" horiz-adv-x="1196" 
d="M410 1434l90 -1158l585 1158h238l-739 -1434h-262l-142 1434h230z" />
    <glyph glyph-name="W" unicode="W" horiz-adv-x="1814" 
d="M1180 1434l45 -1123l477 1123h235l-630 -1434h-269l-49 1110l-520 -1110h-270l-21 1434h238l-4 -1123l524 1123h244z" />
    <glyph glyph-name="X" unicode="X" horiz-adv-x="1161" 
d="M426 1434l195 -510l411 510h254l-575 -711l284 -723h-243l-201 553l-438 -553h-252l594 754l-269 680h240z" />
    <glyph glyph-name="Y" unicode="Y" horiz-adv-x="1077" 
d="M989 1434h240l-619 -877l-118 -557h-224l119 557l-244 877h238l172 -633z" />
    <glyph glyph-name="Z" unicode="Z" horiz-adv-x="1132" 
d="M1210 1434l-30 -146l-914 -1083h668l-43 -205h-975l31 141l911 1088h-649l43 205h958z" />
    <glyph glyph-name="bracketleft" unicode="[" horiz-adv-x="641" 
d="M756 1536l-39 -180h-203l-350 -1647h203l-39 -180h-402l426 2007h404z" />
    <glyph glyph-name="backslash" unicode="\" horiz-adv-x="757" 
d="M352 1434l215 -1434h-198l-217 1434h200z" />
    <glyph glyph-name="bracketright" unicode="]" horiz-adv-x="641" 
d="M-192 -471l38 180h203l350 1647h-202l39 180h401l-426 -2007h-403z" />
    <glyph glyph-name="asciicircum" unicode="^" horiz-adv-x="1087" 
d="M791 1434l225 -715h-197l-160 500l-364 -500h-223l530 715h189z" />
    <glyph glyph-name="underscore" unicode="_" horiz-adv-x="993" 
d="M881 -221h-1026l43 194h1026z" />
    <glyph glyph-name="grave" unicode="`" horiz-adv-x="1024" 
d="M457 1536l133 -324h-182l-175 324h224z" />
    <glyph glyph-name="a" unicode="a" horiz-adv-x="1130" 
d="M602 1114q129 0 224.5 -26.5t185.5 -69.5l-164 -754q-19 -74 33 -74t129 52l-27 -209q-82 -60 -194 -60t-137 57.5t-21 98.5q-170 -156 -336 -156t-239.5 149t-20.5 432q52 283 211.5 421.5t355.5 138.5zM612 928q-72 0 -117.5 -15.5t-113.5 -83.5t-111 -274
q-43 -205 -14 -288t124 -83q109 0 261 152l119 553q-76 39 -148 39z" />
    <glyph glyph-name="b" unicode="b" horiz-adv-x="1126" 
d="M642 913q-96 0 -255 -110l-125 -584q80 -59 184 -59t185.5 87.5t126.5 307.5q55 288 -2.5 323t-113.5 35zM750 1114q236 0 252 -201.5t-10 -362.5q-49 -304 -204.5 -440.5t-373.5 -136.5q-106 0 -215 41t-183 101l293 1380l234 41l-111 -520q169 98 318 98z" />
    <glyph glyph-name="c" unicode="c" horiz-adv-x="964" 
d="M596 1114q185 0 253 -102.5t42 -270.5q-109 -8 -213 -20q14 93 -17 150t-124 57q-92 0 -157.5 -86.5t-111.5 -298.5q-80 -379 148 -379q157 0 321 106l8 -196q-172 -101 -389 -101q-303 0 -325.5 212t6.5 360q109 569 559 569z" />
    <glyph glyph-name="d" unicode="d" horiz-adv-x="1128" 
d="M564 928q-54 0 -93 -15.5t-98.5 -83t-102.5 -273.5t-14 -289t131 -83t254 152l113 526q-45 25 -90.5 45.5t-99.5 20.5zM543 1114q120 0 250 -67l94 448l233 41l-272 -1272q-14 -74 43 -74q42 0 119 52l-27 -209q-82 -60 -194 -60t-137 57.5t-21 98.5q-170 -156 -336 -156
t-239.5 149t-20.5 432q52 283 194.5 421.5t313.5 138.5z" />
    <glyph glyph-name="e" unicode="e" horiz-adv-x="1021" 
d="M163 904.5q101 209.5 425 209.5q208 0 283 -126.5t32 -330.5l-37 -174h-614q-45 -257 36.5 -289t143.5 -32t157 26.5t187 79.5l8 -190q-179 -105 -401 -105q-323 0 -349 208t1 361t128 362.5zM552 928q-99 0 -159.5 -65.5t-99.5 -205.5h385q29 139 1 205t-127 66z" />
    <glyph glyph-name="f" unicode="f" horiz-adv-x="641" 
d="M715 1536q113 0 198 -35l-57 -180q-63 27 -144 27q-181 0 -223 -181l-16 -80h268l-65 -180h-242l-235 -1110q-29 -135 -116 -201.5t-208 -66.5t-209 55l74 180q58 -36 116 -36t86.5 25.5t43.5 86.5l225 1067h-152l39 180h152l16 74q77 375 449 375z" />
    <glyph glyph-name="g" unicode="g" horiz-adv-x="1122" 
d="M602 1114q129 0 224.5 -26.5t185.5 -69.5l-236 -1112q-78 -377 -487 -377q-234 0 -404 129l88 176q139 -106 339 -106t241 176l41 194q-155 -125 -309 -125q-240 0 -260.5 208t6.5 364q51 293 212.5 431t358.5 138zM612 928q-70 0 -116.5 -15.5t-115 -82t-112.5 -273.5
q-43 -207 -14 -290t125 -83q110 0 262 152l117 553q-76 39 -146 39z" />
    <glyph glyph-name="h" unicode="h" horiz-adv-x="1153" 
d="M428 1006q185 108 344 108q158 0 214 -96t26 -250l-162 -768h-223l164 764q33 147 -105 147q-103 0 -186.5 -46t-114.5 -62l-170 -803h-223l317 1493l232 41z" />
    <glyph glyph-name="i" unicode="i" horiz-adv-x="542" 
d="M528 1475l-51 -242h-223l51 242h223zM446 1087l-231 -1087h-223l231 1087h223z" />
    <glyph glyph-name="j" unicode="j" horiz-adv-x="542" 
d="M530 1475l-53 -242h-223l53 242h223zM-153 -471q-120 0 -209 55l73 180q59 -36 117 -36t86.5 25.5t42.5 86.5l266 1247h223l-276 -1290q-29 -135 -116 -201.5t-207 -66.5z" />
    <glyph glyph-name="k" unicode="k" horiz-adv-x="1009" 
d="M215 0h-221l315 1495l232 41l-191 -889l455 440h260l-436 -436l254 -651h-246l-188 498l-160 -154z" />
    <glyph glyph-name="l" unicode="l" horiz-adv-x="550" 
d="M254 191.5q18 -13.5 62 -13.5t130 45l-24 -198q-91 -52 -204 -52q-114 0 -170 65.5t-28 203.5l265 1253l233 41l-272 -1286q-10 -45 8 -58.5z" />
    <glyph glyph-name="m" unicode="m" horiz-adv-x="1730" 
d="M756 1114q92 0 141 -33.5t78 -99.5q96 53 190.5 93t192.5 40q147 0 206.5 -93t24.5 -253l-162 -768h-223l154 729q25 115 -1 152t-71 37q-108 0 -299 -111q-3 -34 -10 -72l-156 -735h-223l154 723q25 115 -1 151.5t-71 36.5q-121 0 -295 -108l-170 -803h-223l231 1087
h201l-23 -98q191 125 355 125z" />
    <glyph glyph-name="n" unicode="n" horiz-adv-x="1155" 
d="M401 989q197 125 363 125q165 0 222.5 -95t27.5 -251l-164 -768h-223l161 764q16 72 -7 109.5t-79 37.5t-96.5 -10t-79.5 -26.5t-74.5 -36t-66.5 -35.5l-170 -803h-223l231 1087h201z" />
    <glyph glyph-name="o" unicode="o" horiz-adv-x="1071" 
d="M602 1114q104 0 178 -31.5t118 -100.5t55.5 -177.5t-53 -470t-535.5 -361.5q-313 0 -335 209t5 360t78 259t124.5 178t167 102.5t197.5 32.5zM716 838q-38 90 -150 90t-182.5 -83.5t-118.5 -294.5q-48 -210 -9 -300t151 -90t183 84t117 294q47 210 9 300z" />
    <glyph glyph-name="p" unicode="p" horiz-adv-x="1126" 
d="M442 160q237 0 316 395q55 298 -5.5 328t-98.5 30q-68 0 -130 -30t-139 -84l-123 -580q80 -59 180 -59zM403 991q174 123 334 123t232.5 -128t24.5 -429t-204 -442.5t-366 -141.5q-107 0 -205 50l-94 -445l-234 -49l332 1558h201z" />
    <glyph glyph-name="q" unicode="q" horiz-adv-x="1126" 
d="M618 928q-72 0 -117.5 -15.5t-113.5 -83.5t-111 -274q-43 -205 -14 -288t121 -83q118 0 264 152l119 553q-76 39 -148 39zM608 1114q129 0 224.5 -26.5t185.5 -69.5l-309 -1440l-236 -49l123 565q-150 -121 -306 -121t-229 149t-20 432q52 283 211.5 421.5t355.5 138.5z
" />
    <glyph glyph-name="r" unicode="r" horiz-adv-x="868" 
d="M705 1114q161 0 152 -124t-21 -183l-203 -23q9 59 4 85t-50 26q-72 0 -208 -117l-164 -778h-223l231 1087h201l-25 -106q155 133 306 133z" />
    <glyph glyph-name="s" unicode="s" horiz-adv-x="905" 
d="M504 295q0 43 -31 72.5t-77 56.5t-176 94.5t-130 229.5t119 264t296 102t251 -94.5t57 -249.5q-52 -4 -190 -25q13 89 -9 125.5t-53 51t-72 14.5q-75 0 -129.5 -40t-54.5 -95t31 -88t78 -61.5t100 -55.5t131 -87t78 -187q0 -160 -113 -254.5t-266 -94.5q-272 0 -393 150
l88 170q103 -137 303 -137q54 0 108 32.5t54 106.5z" />
    <glyph glyph-name="t" unicode="t" horiz-adv-x="724" 
d="M369 176q81 0 204 74v-193q-143 -84 -284 -84q-191 0 -211.5 108.5t-3.5 186.5l137 641h-148l39 178h148l39 181l235 61l-51 -242h272l-67 -178h-244l-131 -626q-12 -59 8.5 -83t57.5 -24z" />
    <glyph glyph-name="u" unicode="u" horiz-adv-x="1130" 
d="M501.5 233q89.5 47 139.5 109l158 745h223l-170 -823q-14 -74 43 -74q42 0 119 52l-33 -209q-82 -60 -171 -60t-137 39.5t-40 116.5q-181 -156 -361 -156q-129 0 -194 94.5t-27 282.5l156 737h223l-162 -763q-16 -74 8.5 -106t79.5 -32q56 0 145.5 47z" />
    <glyph glyph-name="v" unicode="v" horiz-adv-x="1013" 
d="M297 1087l102 -841l439 841h231l-594 -1087h-260l-139 1087h221z" />
    <glyph glyph-name="w" unicode="w" horiz-adv-x="1564" 
d="M967 1087l51 -798l364 798h244l-534 -1087h-250l-56 793l-399 -793h-250l-67 1087h223l43 -790l375 790h256z" />
    <glyph glyph-name="x" unicode="x" horiz-adv-x="987" 
d="M324 1087l149 -380l315 380h259l-476 -544l230 -543h-240l-160 383l-323 -383h-250l477 561l-215 526h234z" />
    <glyph glyph-name="y" unicode="y" horiz-adv-x="1118" 
d="M284 -27q-155 0 -211.5 103.5t-21.5 273.5l156 737h223l-162 -763q-16 -74 8.5 -106t64.5 -32q71 0 160.5 47t139.5 109l158 745h223l-250 -1185q-78 -373 -487 -373q-234 0 -404 129l88 176q139 -106 338 -106t240 176l41 182q-149 -113 -304 -113z" />
    <glyph glyph-name="z" unicode="z" horiz-adv-x="983" 
d="M958 1087l-30 -147l-670 -754h514l-39 -186h-815l31 141l669 760h-497l39 186h798z" />
    <glyph glyph-name="braceleft" unicode="{" horiz-adv-x="704" 
d="M709 1559q108 0 168 -33l-74 -170q-50 20 -107 20q-117 0 -141 -116l-104 -488q-23 -109 -78.5 -162t-128.5 -78q144 -56 106 -231l-104 -496q-25 -118 92 -118q53 0 115 22v-170q-78 -33 -191 -33t-179.5 79t-35.5 225l103 495q22 102 -45.5 117.5t-106.5 15.5l39 187
q179 0 211 143l96 451q37 174 123 257t242 83z" />
    <glyph glyph-name="bar" unicode="|" horiz-adv-x="561" 
d="M557 1536l-428 -2007h-203l426 2007h205z" />
    <glyph glyph-name="braceright" unicode="}" horiz-adv-x="704" 
d="M-57 -311q117 0 141 117l104 487q23 109 78 162t129 78q-144 56 -106 231l104 496q13 66 -13 92q-54 54 -194 4v170q75 32 190 32q114 0 180 -78t36 -225l-103 -495q-22 -102 82 -126q31 -7 70 -7l-39 -187q-179 0 -211 -143l-96 -451q-37 -174 -123 -257t-242 -82
q-110 0 -168 32l74 170q50 -20 107 -20z" />
    <glyph glyph-name="asciitilde" unicode="~" 
d="M381 815q71 0 153 -26.5t122 -39t69 -12.5q76 0 131 99q39 -16 77 -32t77 -32q-120 -221 -324 -221q-60 0 -140.5 26.5t-122.5 39t-77 12.5q-78 0 -131 -99l-154 64q120 221 320 221z" />
    <glyph glyph-name="exclamdown" unicode="&#xa1;" horiz-adv-x="591" 
d="M211 850l51 237h236l-52 -237h-235zM-47 -346l237 1048h211l-208 -1048h-240z" />
    <glyph glyph-name="cent" unicode="&#xa2;" 
d="M647 1071q-103 0 -180.5 -87t-126.5 -320t29.5 -293t166.5 -60t176.5 35t143.5 70l6 -199q-151 -86 -346 -98l-63 -299h-177l66 307q-152 39 -213 181t-12 394t169 384.5t296 160.5l61 289h176l-61 -287q145 -16 207.5 -117.5t33.5 -246.5l-202 -21q12 92 -17.5 149.5
t-132.5 57.5z" />
    <glyph glyph-name="sterling" unicode="&#xa3;" 
d="M274 1026q39 201 155.5 317.5t335.5 116.5t300.5 -123.5t52.5 -271.5l-211 -37q16 106 -17.5 166.5t-147.5 60.5t-168 -65.5t-74 -161.5q0 -14 -37 -242h438l-35 -170h-424q-28 -190 -36 -231q-22 -112 -136 -180h639l-43 -205h-944l37 178q190 61 227 236l29 202h-199
l35 170h187q10 76 17 120t11 75.5t8 44.5z" />
    <glyph glyph-name="currency" unicode="&#xa4;" 
d="M585.5 893q-100.5 0 -166 -55.5t-87.5 -155.5t21.5 -155.5t144 -55.5t166 55.5t88.5 155.5q20 100 -23 155.5t-143.5 55.5zM454 285q-120 0 -196 61l-213 -174l-96 123l213 176q-42 96 -16 213t104 209l-137 176l147 123l139 -174q106 61 227.5 61t198.5 -61l213 174
l99 -123l-215 -176q41 -94 14 -212t-102 -210l137 -176l-148 -123l-139 174q-110 -61 -230 -61z" />
    <glyph glyph-name="yen" unicode="&#xa5;" 
d="M991 1434h232l-480 -648h275l-37 -170h-350l-131 -616h-221l131 616h-357l37 170h279l-203 648h246l168 -568z" />
    <glyph glyph-name="brokenbar" unicode="&#xa6;" horiz-adv-x="561" 
d="M301 332l-172 -803h-203l170 803h205zM557 1536l-172 -803h-205l172 803h205z" />
    <glyph glyph-name="section" unicode="&#xa7;" horiz-adv-x="1138" 
d="M354 881q-32 -36 -44 -91q-13 -55 4.5 -89.5t53 -63.5t84 -54.5t136 -73t151.5 -120.5q39 39 51 101t-32.5 104.5t-117.5 79.5t-153 83t-133 124zM262 1022q-4 202 121.5 320t337.5 118t288 -109.5t56 -258.5l-211 -31q5 94 -24 150.5t-121 56.5q-187 0 -217 -150
q-18 -86 49 -140t167.5 -108.5t150.5 -89.5t109 -101t29 -202q-29 -136 -155 -231q0 -210 -138.5 -324.5t-357.5 -114.5q-125 0 -227.5 49.5t-159.5 135.5l129 153q96 -147 293 -147t227 149q12 57 -25.5 100.5t-100 82.5t-137.5 79t-134 93t-92 121.5t-15 158.5t62.5 144.5
t95.5 95.5z" />
    <glyph glyph-name="dieresis" unicode="&#xa8;" horiz-adv-x="1024" 
d="M786 1481l-43 -211h-182l43 211h182zM461 1481l-43 -211h-182l43 211h182z" />
    <glyph glyph-name="copyright" unicode="&#xa9;" horiz-adv-x="1589" 
d="M713 100q244 0 438.5 181.5t224.5 438.5t-111.5 434t-391.5 177t-442 -181.5t-223 -436.5q-30 -255 73.5 -385.5t205 -179t226.5 -48.5zM884 1460q150 0 271 -58.5t204 -159.5t122 -236.5t19 -289.5t-89.5 -289.5t-239.5 -294.5t-473 -159q-147 0 -268 58.5t-204 159
t-120.5 236.5t-17.5 290q18 154 88 289t176.5 236t244 159.5t287.5 58.5zM877 1171q116 0 186.5 -73t58.5 -199q-37 -6 -75.5 -14t-75.5 -13q8 102 -32 127t-73 25q-92 0 -151.5 -69.5t-96.5 -237.5t-2 -236.5t138 -68.5t229 71l23 -137q-132 -84 -288 -84t-233 107.5
t-36.5 345t156.5 347t272 109.5z" />
    <glyph glyph-name="ordfeminine" unicode="&#xaa;" horiz-adv-x="782" 
d="M510 1323q-66 0 -103.5 -34t-71.5 -103t-43 -179t14.5 -140.5t65.5 -30.5q72 0 163 73l86 389q-45 25 -111 25zM293 690q-145 0 -167 107.5t-14 193.5q17 190 122.5 329.5t272.5 139.5t308 -63l-113 -518q-6 -45 27 -45t86 34l-16 -131q-68 -47 -135 -47q-134 0 -125 101
q-132 -101 -246 -101z" />
    <glyph glyph-name="guillemotleft" unicode="&#xab;" horiz-adv-x="1275" 
d="M920 137l-328 486l479 464h215l-446 -464l266 -486h-186zM395 137l-327 486l479 464h215l-447 -464l267 -486h-187z" />
    <glyph glyph-name="logicalnot" unicode="&#xac;" 
d="M981 778l-109 -516h-194l67 322h-641l41 194h836z" />
    <glyph glyph-name="registered" unicode="&#xae;" horiz-adv-x="1077" 
d="M889.5 1235.5q-83.5 112.5 -253.5 112.5q-171 0 -287 -116t-132 -278q-21 -168 61 -280.5t253 -112.5t284.5 113.5t135.5 281t-61.5 280zM957.5 1303q119.5 -143 93.5 -348t-176 -348.5t-348 -143.5t-318 144.5t-90 346.5q24 207 173.5 349.5t347.5 142.5t317.5 -143z
M546 995h25q47 0 76 12.5t36 58.5t-14.5 57.5t-68.5 11.5h-37l-28 -138q8 -2 11 -2zM524 893q-4 0 -12 2l-43 -207h-127l115 545h166q89 0 141 -40t42 -116q-11 -77 -40 -113t-82 -55l51 -221h-131l-43 205h-37z" />
    <glyph glyph-name="macron" unicode="&#xaf;" horiz-adv-x="1024" 
d="M215 1294l35 160h545l-35 -160h-545z" />
    <glyph glyph-name="degree" unicode="&#xb0;" horiz-adv-x="655" 
d="M404 1079q54 0 95.5 35t50.5 89t-17.5 89t-81.5 35t-96.5 -35t-50.5 -89t18.5 -89t81.5 -35zM475 1460q110 0 169 -73t42 -185q-21 -110 -105.5 -184t-197.5 -74t-172 74.5t-43 183.5q33 173 141.5 215.5t165.5 42.5z" />
    <glyph glyph-name="plusminus" unicode="&#xb1;" 
d="M729 1100l-70 -322h322l-41 -194h-322l-67 -322h-195l68 322h-320l41 194h320l70 322h194zM815 0h-835l40 193h836z" />
    <glyph glyph-name="twosuperior" unicode="&#xb2;" horiz-adv-x="655" 
d="M154 1231q68 229 294 229q124 0 182 -67t39 -175t-153 -229l-194 -174h278l-33 -151h-508l23 114l326 299q81 73 94 133q23 105 -76 105q-49 0 -81 -37t-44 -80z" />
    <glyph glyph-name="threesuperior" unicode="&#xb3;" horiz-adv-x="655" 
d="M174 1235q60 225 320 225q86 0 144 -53t58 -166.5t-141 -175.5q92 -31 92 -125q0 -137 -91 -207.5t-228 -70.5q-78 0 -142.5 31.5t-99.5 84.5l78 113q59 -90 178 -90q53 0 94 30.5t41 96.5t-100 67h-88l26 129h91q61 0 91.5 39t30.5 86q0 70 -77 70q-59 0 -90 -34
t-48 -83z" />
    <glyph glyph-name="acute" unicode="&#xb4;" horiz-adv-x="1024" 
d="M840 1536l-305 -324h-191l268 324h228z" />
    <glyph glyph-name="mu" unicode="&#xb5;" horiz-adv-x="1144" 
d="M343 -27q-89 0 -136 54l-80 -449l-231 -49l325 1558h223l-161 -768q-16 -80 16.5 -114.5t91.5 -34.5t132 36t124 95l166 786h223l-170 -823q-14 -74 43 -74q42 0 119 52l-33 -209q-82 -60 -171 -60q-88 0 -136 39.5t-41 116.5q-80 -78 -147.5 -117t-156.5 -39z" />
    <glyph glyph-name="mu" unicode="&#x3bc;" horiz-adv-x="1144" 
d="M343 -27q-89 0 -136 54l-80 -449l-231 -49l325 1558h223l-161 -768q-16 -80 16.5 -114.5t91.5 -34.5t132 36t124 95l166 786h223l-170 -823q-14 -74 43 -74q42 0 119 52l-33 -209q-82 -60 -171 -60q-88 0 -136 39.5t-41 116.5q-80 -78 -147.5 -117t-156.5 -39z" />
    <glyph glyph-name="paragraph" unicode="&#xb6;" horiz-adv-x="1452" 
d="M702 1237q-149 0 -226.5 -64.5t-108.5 -220.5q-45 -218 61.5 -246t174.5 -28t95 6l117 553h-113zM531 481q-80 0 -163 28t-176 118.5t-47 326.5q45 236 189.5 358t410.5 122h680l-350 -1643h-176l307 1446h-213l-307 -1446h-178l149 698q-46 -8 -126 -8z" />
    <glyph glyph-name="periodcentered" unicode="&#xb7;" horiz-adv-x="481" 
d="M375 801l-51 -238h-236l51 238h236z" />
    <glyph glyph-name="cedilla" unicode="&#xb8;" horiz-adv-x="1024" 
d="M504 -109q0 51 -21 109h181q23 -74 22 -133q0 -111 -68.5 -184.5t-203.5 -73.5q-74 0 -134.5 33.5t-82.5 87.5l116 112q30 -61 93 -61q98 0 98 110z" />
    <glyph glyph-name="onesuperior" unicode="&#xb9;" horiz-adv-x="655" 
d="M113 817h170l90 428l-185 -84l33 162l240 111h117l-132 -617h164l-32 -153h-498z" />
    <glyph glyph-name="ordmasculine" unicode="&#xba;" horiz-adv-x="782" 
d="M412 819q112 0 148 90t50 162q31 143 5.5 196.5t-97.5 53.5t-121 -54.5t-79 -197.5t-4 -196.5t98 -53.5zM546 1460q159 0 218 -108t21 -298q-74 -372 -404 -376q-153 0 -215 106.5t-23 299.5q39 192 141.5 284t261.5 92z" />
    <glyph glyph-name="guillemotright" unicode="&#xbb;" horiz-adv-x="1275" 
d="M881 1087l327 -485l-479 -465h-215l447 465l-267 485h187zM356 1087l328 -485l-479 -465h-215l446 465l-266 485h186z" />
    <glyph glyph-name="onequarter" unicode="&#xbc;" horiz-adv-x="1542" 
d="M1470 1434l-1216 -1434h-182l1214 1434h184zM94 817h170l90 428l-184 -84l33 162l239 111h117l-131 -617h164l-33 -153h-498zM971 307h166l57 268zM780 279l402 491h211l-99 -463h99l-31 -143h-98l-35 -164h-158l35 164h-350z" />
    <glyph glyph-name="onehalf" unicode="&#xbd;" horiz-adv-x="1542" 
d="M901 567q69 230 294 230q124 0 182 -67.5t39 -175.5t-152 -228l-195 -174h279l-33 -152h-508l22 115l326 299q82 73 94 133q23 104 -75 104q-49 0 -81 -36.5t-44 -79.5zM94 817h170l90 428l-184 -84l33 162l239 111h117l-131 -617h164l-33 -153h-498zM1470 1434
l-1216 -1434h-182l1214 1434h184z" />
    <glyph glyph-name="threequarters" unicode="&#xbe;" horiz-adv-x="1542" 
d="M145 1235q60 225 320 225q86 0 144.5 -53t58.5 -166.5t-142 -175.5q92 -31 92 -125q0 -137 -91 -207.5t-228 -70.5q-78 0 -142.5 31.5t-99.5 84.5l78 113q59 -90 178 -90q53 0 94.5 30.5t41.5 96.5t-101 67h-88l27 129h90q61 0 92 39t31 86q0 70 -78 70q-99 0 -137 -117z
M969 307h166l57 268zM778 279l402 491h211l-99 -463h99l-31 -143h-98l-35 -164h-158l35 164h-350zM1468 1434l-1216 -1434h-182l1214 1434h184z" />
    <glyph glyph-name="questiondown" unicode="&#xbf;" horiz-adv-x="778" 
d="M64 -34q0 -52 32 -93t98 -41q68 0 111 20q115 55 156 201l205 -43q-67 -269 -300 -353q-82 -30 -184 -30q-176 0 -264 84t-90 211q0 200 173 359q51 45 103 85t84 68t69 77q36 50 67 194h215q-46 -202 -87 -265q-40 -63 -84 -103t-96 -78t-86 -66q-122 -101 -122 -227z
M344 850l49 237h236l-49 -237h-236z" />
    <glyph glyph-name="Agrave" unicode="&#xc0;" horiz-adv-x="1114" 
d="M328 537h385l-54 659zM729 338h-502l-170 -338h-235l739 1434h295l133 -1434h-233zM684 1868l133 -324h-182l-174 324h223z" />
    <glyph glyph-name="Aacute" unicode="&#xc1;" horiz-adv-x="1114" 
d="M328 537h385l-54 659zM729 338h-502l-170 -338h-235l739 1434h295l133 -1434h-233zM1116 1868l-305 -324h-190l268 324h227z" />
    <glyph glyph-name="Acircumflex" unicode="&#xc2;" horiz-adv-x="1114" 
d="M328 537h385l-54 659zM729 338h-502l-170 -338h-235l739 1434h295l133 -1434h-233zM612 1544h-184l262 324h201l127 -324h-170l-80 187z" />
    <glyph glyph-name="Atilde" unicode="&#xc3;" horiz-adv-x="1114" 
d="M328 537h385l-54 659zM729 338h-502l-170 -338h-235l739 1434h295l133 -1434h-233zM870 1751q63 0 99 78l121 -64q-88 -176 -240 -176q-43 0 -107 34t-96 34q-31 0 -51 -22t-37 -56l-121 61q80 175 221 177q49 -1 97 -23t70 -32t44 -11z" />
    <glyph glyph-name="Adieresis" unicode="&#xc4;" horiz-adv-x="1114" 
d="M328 537h385l-54 659zM729 338h-502l-170 -338h-235l739 1434h295l133 -1434h-233zM1042 1810l-43 -211h-182l43 211h182zM717 1810l-43 -211h-182l43 211h182z" />
    <glyph glyph-name="Aring" unicode="&#xc5;" horiz-adv-x="1114" 
d="M328 537h385l-54 659zM729 338h-502l-170 -338h-235l739 1434h295l133 -1434h-233zM780 1778q-74 0 -86 -74q-16 -74 58 -74t90 74q12 74 -62 74zM804 1886q89 0 135 -52t31 -130t-82 -130t-158 -52t-136 52t-29 130t83 130t156 52z" />
    <glyph glyph-name="AE" unicode="&#xc6;" horiz-adv-x="1685" 
d="M389 537h350l138 645zM1704 1434l-43 -205h-553l-84 -395h528l-45 -207h-528l-90 -422h581l-43 -205h-802l71 338h-458l-254 -338h-258l1091 1434h887z" />
    <glyph glyph-name="Ccedilla" unicode="&#xc7;" horiz-adv-x="1142" 
d="M219 -162q31 -61 103 -61q32 0 53.5 19.5t31 57.5t-13.5 126q-225 33 -300 224t-9 517q76 389 248 564t442 175q203 0 289.5 -122.5t54.5 -307.5l-219 -26q14 115 -9.5 161.5t-61 68t-111.5 21.5q-158 0 -250.5 -121.5t-155.5 -412.5q-92 -440 30 -491.5t210 -51.5
q176 0 369 109l-5 -211q-144 -78 -340 -99q43 -158 -25.5 -265t-230.5 -107q-74 0 -134 33.5t-83 87.5z" />
    <glyph glyph-name="Egrave" unicode="&#xc8;" horiz-adv-x="1083" 
d="M1104 1434l-43 -205h-553l-84 -395h528l-45 -207h-528l-90 -422h581l-43 -205h-802l305 1434h774zM713 1868l133 -324h-182l-175 324h224z" />
    <glyph glyph-name="Eacute" unicode="&#xc9;" horiz-adv-x="1083" 
d="M1104 1434l-43 -205h-553l-84 -395h528l-45 -207h-528l-90 -422h581l-43 -205h-802l305 1434h774zM1116 1868l-305 -324h-190l268 324h227z" />
    <glyph glyph-name="Ecircumflex" unicode="&#xca;" horiz-adv-x="1083" 
d="M1104 1434l-43 -205h-553l-84 -395h528l-45 -207h-528l-90 -422h581l-43 -205h-802l305 1434h774zM616 1544h-184l262 324h201l127 -324h-170l-80 187z" />
    <glyph glyph-name="Edieresis" unicode="&#xcb;" horiz-adv-x="1083" 
d="M1104 1434l-43 -205h-553l-84 -395h528l-45 -207h-528l-90 -422h581l-43 -205h-802l305 1434h774zM1036 1810l-43 -211h-182l43 211h182zM711 1810l-43 -211h-183l43 211h183z" />
    <glyph glyph-name="Igrave" unicode="&#xcc;" horiz-adv-x="577" 
d="M551 1434l-305 -1434h-221l305 1434h221zM418 1868l133 -324h-182l-174 324h223z" />
    <glyph glyph-name="Iacute" unicode="&#xcd;" horiz-adv-x="577" 
d="M551 1434l-305 -1434h-221l305 1434h221zM860 1868l-305 -324h-190l268 324h227z" />
    <glyph glyph-name="Icircumflex" unicode="&#xce;" horiz-adv-x="577" 
d="M551 1434l-305 -1434h-221l305 1434h221zM356 1544h-184l262 324h201l127 -324h-170l-80 187z" />
    <glyph glyph-name="Idieresis" unicode="&#xcf;" horiz-adv-x="577" 
d="M551 1434l-305 -1434h-221l305 1434h221zM776 1810l-43 -211h-182l43 211h182zM451 1810l-43 -211h-183l43 211h183z" />
    <glyph glyph-name="Eth" unicode="&#xd0;" horiz-adv-x="1302" 
d="M522 205q177 0 291 114t182 416q86 395 -107 470q-62 24 -149 24h-223l-86 -400h311l-41 -198h-311l-90 -426h223zM799 1434q398 0 445 -381q16 -131 -22 -323q-73 -372 -264 -551t-471 -179h-454l133 631h-150l41 198h152l129 605h461z" />
    <glyph glyph-name="Ntilde" unicode="&#xd1;" horiz-adv-x="1417" 
d="M545 1434l409 -1043l220 1043h217l-306 -1434h-213l-413 1034l-217 -1034h-217l305 1434h215zM1014 1751q63 0 98 78l121 -64q-88 -176 -240 -176q-44 0 -107 34t-94 34q-51 0 -90 -78l-120 61q80 175 221 177q46 -1 95 -23q50 -22 72 -32t44 -11z" />
    <glyph glyph-name="Ograve" unicode="&#xd2;" horiz-adv-x="1273" 
d="M797 1460q523 0 385 -739q-41 -205 -112 -347q-200 -401 -596 -401q-528 0 -386 740q73 384 276 578q177 169 433 169zM520 178q72 0 138 27q211 87 298 514q116 541 -206 536q-158 0 -266 -123q-109 -123 -170 -412t-1 -426q54 -116 207 -116zM774 1868l133 -324h-182
l-174 324h223z" />
    <glyph glyph-name="Oacute" unicode="&#xd3;" horiz-adv-x="1273" 
d="M797 1460q523 0 385 -739q-41 -205 -112 -347q-200 -401 -596 -401q-528 0 -386 740q73 384 276 578q177 169 433 169zM520 178q72 0 138 27q211 87 298 514q116 541 -206 536q-158 0 -266 -123q-109 -123 -170 -412t-1 -426q54 -116 207 -116zM1202 1868l-305 -324h-190
l268 324h227z" />
    <glyph glyph-name="Ocircumflex" unicode="&#xd4;" horiz-adv-x="1273" 
d="M797 1460q523 0 385 -739q-41 -205 -112 -347q-200 -401 -596 -401q-528 0 -386 740q73 384 276 578q177 169 433 169zM520 178q72 0 138 27q211 87 298 514q116 541 -206 536q-158 0 -266 -123q-109 -123 -170 -412t-1 -426q54 -116 207 -116zM700 1544h-184l262 324
h201l127 -324h-170l-80 187z" />
    <glyph glyph-name="Otilde" unicode="&#xd5;" horiz-adv-x="1273" 
d="M797 1460q523 0 385 -739q-41 -205 -112 -347q-200 -401 -596 -401q-528 0 -386 740q73 384 276 578q177 169 433 169zM520 178q72 0 138 27q211 87 298 514q116 541 -206 536q-158 0 -266 -123q-109 -123 -170 -412t-1 -426q54 -116 207 -116zM950 1751q63 0 99 78
l120 -64q-88 -176 -239 -176q-43 0 -107 34t-96 34q-31 0 -51 -22t-37 -56l-121 61q80 175 221 177q49 -1 97 -23t70 -32t44 -11z" />
    <glyph glyph-name="Odieresis" unicode="&#xd6;" horiz-adv-x="1273" 
d="M797 1460q523 0 385 -739q-41 -205 -112 -347q-200 -401 -596 -401q-528 0 -386 740q73 384 276 578q177 169 433 169zM520 178q72 0 138 27q211 87 298 514q116 541 -206 536q-158 0 -266 -123q-109 -123 -170 -412t-1 -426q54 -116 207 -116zM1120 1810l-43 -211h-182
l43 211h182zM795 1810l-43 -211h-183l43 211h183z" />
    <glyph glyph-name="multiply" unicode="&#xd7;" 
d="M332 1114l233 -299l367 305l110 -143l-366 -303l233 -297l-157 -129l-234 297l-366 -303l-113 141l367 303l-236 297z" />
    <glyph glyph-name="Oslash" unicode="&#xd8;" horiz-adv-x="1273" 
d="M942 1165q-59 90 -204 90q-144 0 -253.5 -123.5t-171.5 -416.5q-41 -205 -26 -324zM326 270q58 -92 204 -92t256 124t170 417q43 203 27 323zM797 1460q201 0 303 -110l127 149l90 -65l-154 -179q85 -187 19 -534q-78 -389 -265.5 -568.5t-443.5 -179.5q-204 0 -307 111
l-125 -147l-86 63l149 176q-83 181 -13 552t260 551.5t446 180.5z" />
    <glyph glyph-name="Ugrave" unicode="&#xd9;" horiz-adv-x="1349" 
d="M559 178q154 0 241 77t120 230l200 949h221l-202 -955q-78 -367 -377 -470q-104 -36 -234 -36t-216 39q-174 78 -207 267q-15 92 8 200l202 955h222l-201 -949q-31 -147 19 -227t204 -80zM809 1868l133 -324h-182l-174 324h223z" />
    <glyph glyph-name="Uacute" unicode="&#xda;" horiz-adv-x="1349" 
d="M559 178q154 0 241 77t120 230l200 949h221l-202 -955q-78 -367 -377 -470q-104 -36 -234 -36t-216 39q-174 78 -207 267q-15 92 8 200l202 955h222l-201 -949q-31 -147 19 -227t204 -80zM1243 1868l-305 -324h-190l268 324h227z" />
    <glyph glyph-name="Ucircumflex" unicode="&#xdb;" horiz-adv-x="1349" 
d="M559 178q154 0 241 77t120 230l200 949h221l-202 -955q-78 -367 -377 -470q-104 -36 -234 -36t-216 39q-174 78 -207 267q-15 92 8 200l202 955h222l-201 -949q-31 -147 19 -227t204 -80zM741 1544h-184l262 324h201l127 -324h-170l-80 187z" />
    <glyph glyph-name="Udieresis" unicode="&#xdc;" horiz-adv-x="1349" 
d="M559 178q154 0 241 77t120 230l200 949h221l-202 -955q-78 -367 -377 -470q-104 -36 -234 -36t-216 39q-174 78 -207 267q-15 92 8 200l202 955h222l-201 -949q-31 -147 19 -227t204 -80zM1161 1810l-43 -211h-182l43 211h182zM836 1810l-43 -211h-183l43 211h183z" />
    <glyph glyph-name="Yacute" unicode="&#xdd;" horiz-adv-x="1077" 
d="M989 1434h240l-619 -877l-118 -557h-224l119 557l-244 877h238l172 -633zM1120 1868l-305 -324h-190l268 324h227z" />
    <glyph glyph-name="Thorn" unicode="&#xde;" horiz-adv-x="1155" 
d="M486 471q154 0 240 59.5t119 212.5q32 152 -20.5 210.5t-197.5 58.5h-164l-111 -527q58 -14 134 -14zM473 266q-107 0 -166 15l-59 -281h-221l305 1434h221l-49 -217h166q479 0 399 -469q-65 -370 -277 -426t-319 -56z" />
    <glyph glyph-name="germandbls" unicode="&#xdf;" horiz-adv-x="1146" 
d="M854 1222q0 134 -169 134q-87 0 -153.5 -53.5t-89.5 -157.5l-243 -1145h-224l246 1159q39 192 175.5 296t321.5 104q168 0 266.5 -77.5t98.5 -196.5t-41 -195t-89 -132.5t-89 -100.5t-41 -87t30 -84t65.5 -90t65.5 -108.5t30 -136.5q0 -160 -103.5 -269t-285.5 -109
t-308 129l91 164q33 -43 95 -72.5t136 -29.5t115 45t41 107t-29 105.5t-64.5 88.5t-64.5 97t-29 127t38 136.5t84 116.5t85 113t39 122z" />
    <glyph glyph-name="agrave" unicode="&#xe0;" horiz-adv-x="1130" 
d="M602 1114q129 0 224 -27t186 -69l-164 -754q-18 -72 43 -74q42 0 119 52l-27 -209q-79 -58 -193 -59q-113 -1 -150 84q-13 30 -9 71q-170 -156 -335 -156t-237 141q-77 156 -24 440q52 284 225 433q146 127 342 127zM612 928q-72 0 -117 -16q-46 -16 -88 -57
q-94 -94 -137 -299q-43 -206 -14 -289t131 -83t254 152l119 553q-76 39 -148 39zM606 1536l133 -324h-182l-174 324h223z" />
    <glyph glyph-name="aacute" unicode="&#xe1;" horiz-adv-x="1130" 
d="M602 1114q129 0 224 -27t186 -69l-164 -754q-18 -72 43 -74q42 0 119 52l-27 -209q-79 -58 -193 -59q-113 -1 -150 84q-13 30 -9 71q-170 -156 -335 -156t-237 141q-77 156 -24 440q52 284 225 433q146 127 342 127zM612 928q-72 0 -117 -16q-46 -16 -88 -57
q-94 -94 -137 -299q-43 -206 -14 -289t131 -83t254 152l119 553q-76 39 -148 39zM1026 1536l-305 -324h-191l269 324h227z" />
    <glyph glyph-name="acircumflex" unicode="&#xe2;" horiz-adv-x="1130" 
d="M602 1114q129 0 224 -27t186 -69l-164 -754q-18 -72 43 -74q42 0 119 52l-27 -209q-79 -58 -193 -59q-113 -1 -150 84q-13 30 -9 71q-170 -156 -335 -156t-237 141q-77 156 -24 440q52 284 225 433q146 127 342 127zM612 928q-72 0 -117 -16q-46 -16 -88 -57
q-94 -94 -137 -299q-43 -206 -14 -289t131 -83t254 152l119 553q-76 39 -148 39zM508 1212h-184l262 324h200l127 -324h-170l-79 187z" />
    <glyph glyph-name="atilde" unicode="&#xe3;" horiz-adv-x="1130" 
d="M602 1114q129 0 224 -27t186 -69l-164 -754q-18 -72 43 -74q42 0 119 52l-27 -209q-79 -58 -193 -59q-113 -1 -150 84q-13 30 -9 71q-170 -156 -335 -156t-237 141q-77 156 -24 440q52 284 225 433q146 127 342 127zM612 928q-72 0 -117 -16q-46 -16 -88 -57
q-94 -94 -137 -299q-43 -206 -14 -289t131 -83t254 152l119 553q-76 39 -148 39zM557 1487q55 0 119 -32t92 -34q63 0 98 78l121 -63q-88 -176 -239 -176q-43 0 -108 34t-95 33q-50 0 -88 -78l-121 62q81 176 221 176z" />
    <glyph glyph-name="adieresis" unicode="&#xe4;" horiz-adv-x="1130" 
d="M602 1114q129 0 224 -27t186 -69l-164 -754q-18 -72 43 -74q42 0 119 52l-27 -209q-79 -58 -193 -59q-113 -1 -150 84q-13 30 -9 71q-170 -156 -335 -156t-237 141q-77 156 -24 440q52 284 225 433q146 127 342 127zM612 928q-72 0 -117 -16q-46 -16 -88 -57
q-94 -94 -137 -299q-43 -206 -14 -289t131 -83t254 152l119 553q-76 39 -148 39zM938 1481l-43 -211h-182l43 211h182zM612 1481l-43 -211h-182l43 211h182z" />
    <glyph glyph-name="aring" unicode="&#xe5;" horiz-adv-x="1130" 
d="M602 1114q129 0 224 -27t186 -69l-164 -754q-18 -72 43 -74q42 0 119 52l-27 -209q-79 -58 -193 -59q-113 -1 -150 84q-13 30 -9 71q-170 -156 -335 -156t-237 141q-77 156 -24 440q52 284 225 433q146 127 342 127zM612 928q-72 0 -117 -16q-46 -16 -88 -57
q-94 -94 -137 -299q-43 -206 -14 -289t131 -83t254 152l119 553q-76 39 -148 39zM678 1448q-76 0 -88 -74q-16 -74 58 -74t89 74q12 74 -59 74zM700 1556q88 0 134 -52t31 -129t-82 -130t-158 -53q-90 0 -136 52q-45 52 -28 130q16 78 83 130q68 52 156 52z" />
    <glyph glyph-name="ae" unicode="&#xe6;" horiz-adv-x="1622" 
d="M1152 928q-99 0 -159.5 -65.5t-99.5 -205.5h385q29 139 1 205t-127 66zM387 184q102 0 231 129q-8 94 14 215q37 209 126 353l2 8q-76 39 -148 39t-117.5 -15.5t-113.5 -83.5t-111 -274q-43 -205 -14 -288t131 -83zM308 -27q-98 0 -156 35t-114 149t-3 397
q52 283 211.5 421.5t343.5 138.5t346 -63q114 63 238 63q222 0 297 -126.5t32 -330.5l-37 -174h-614q-45 -257 36.5 -289t143.5 -32t157 26.5t187 79.5l8 -190q-179 -105 -406 -105t-312 156q-66 -59 -163 -107.5t-195 -48.5z" />
    <glyph glyph-name="ccedilla" unicode="&#xe7;" horiz-adv-x="964" 
d="M221 -219q98 0 98 110q0 37 -14 84q-166 16 -242.5 155.5t-25.5 414.5q109 569 559 569q185 0 253 -102.5t42 -270.5q-109 -8 -213 -20q14 93 -17 150t-124 57q-92 0 -157.5 -86.5t-111.5 -298.5q-80 -379 148 -379q157 0 321 106l8 -196q-119 -73 -262 -92
q18 -59 19 -115q0 -111 -68.5 -184.5t-204.5 -73.5q-74 0 -134 33.5t-83 87.5l117 112q16 -33 43 -47t49 -14z" />
    <glyph glyph-name="egrave" unicode="&#xe8;" horiz-adv-x="1021" 
d="M596 1114q200 0 274 -125q75 -125 33 -332l-37 -174h-614q-31 -176 15 -253q43 -68 157 -68q168 0 352 106l8 -190q-179 -105 -401 -105q-445 0 -348 570q77 435 367 538q92 33 194 33zM552 928q-100 0 -160 -66t-99 -205h385q29 139 1 205t-127 66zM584 1536l133 -324
h-182l-175 324h224z" />
    <glyph glyph-name="eacute" unicode="&#xe9;" horiz-adv-x="1021" 
d="M596 1114q200 0 274 -125q75 -125 33 -332l-37 -174h-614q-31 -176 15 -253q43 -68 157 -68q168 0 352 106l8 -190q-179 -105 -401 -105q-445 0 -348 570q77 435 367 538q92 33 194 33zM552 928q-100 0 -160 -66t-99 -205h385q29 139 1 205t-127 66zM1008 1536l-306 -324
h-190l268 324h228z" />
    <glyph glyph-name="ecircumflex" unicode="&#xea;" horiz-adv-x="1021" 
d="M596 1114q200 0 274 -125q75 -125 33 -332l-37 -174h-614q-31 -176 15 -253q43 -68 157 -68q168 0 352 106l8 -190q-179 -105 -401 -105q-445 0 -348 570q77 435 367 538q92 33 194 33zM552 928q-100 0 -160 -66t-99 -205h385q29 139 1 205t-127 66zM508 1212h-184
l262 324h200l127 -324h-170l-79 187z" />
    <glyph glyph-name="edieresis" unicode="&#xeb;" horiz-adv-x="1021" 
d="M596 1114q200 0 274 -125q75 -125 33 -332l-37 -174h-614q-31 -176 15 -253q43 -68 157 -68q168 0 352 106l8 -190q-179 -105 -401 -105q-445 0 -348 570q77 435 367 538q92 33 194 33zM552 928q-100 0 -160 -66t-99 -205h385q29 139 1 205t-127 66zM940 1481l-43 -211
h-182l43 211h182zM614 1481l-43 -211h-182l43 211h182z" />
    <glyph glyph-name="igrave" unicode="&#xec;" horiz-adv-x="542" 
d="M322 1536l133 -324h-183l-174 324h224zM446 1087l-231 -1087h-223l231 1087h223z" />
    <glyph glyph-name="iacute" unicode="&#xed;" horiz-adv-x="542" 
d="M758 1536l-305 -324h-191l268 324h228zM446 1087l-231 -1087h-223l231 1087h223z" />
    <glyph glyph-name="icircumflex" unicode="&#xee;" horiz-adv-x="542" 
d="M446 1087l-231 -1087h-223l231 1087h223zM248 1212h-185l263 324h200l127 -324h-170l-80 187z" />
    <glyph glyph-name="idieresis" unicode="&#xef;" horiz-adv-x="542" 
d="M674 1481l-43 -211h-182l43 211h182zM348 1481l-43 -211h-182l43 211h182zM446 1087l-231 -1087h-223l231 1087h223z" />
    <glyph glyph-name="eth" unicode="&#xf0;" horiz-adv-x="1071" 
d="M716 838q-38 90 -150 90t-182.5 -83.5t-118.5 -294.5q-48 -210 -9 -300t151 -90t183 84t117 294q47 210 9 300zM608 1114q66 0 127 -16q-18 82 -49 149l-342 -49l29 141l258 37q-28 52 -80 119l211 41q56 -71 84 -131l246 37l-31 -139l-164 -25q95 -252 75 -441.5
t-34 -291.5q-102 -572 -573 -572q-313 0 -335 209t5 360q102 572 573 572z" />
    <glyph glyph-name="ntilde" unicode="&#xf1;" horiz-adv-x="1155" 
d="M401 989q197 125 361 125t223 -95t29 -251l-164 -768h-223l161 764q33 147 -102 147q-101 0 -234 -72q-36 -19 -67 -36l-170 -803h-223l231 1087h201zM606 1487q55 0 119 -32t92 -34q63 0 98 78l121 -63q-88 -176 -239 -176q-43 0 -108 34t-95 33q-50 0 -88 -78l-121 62
q81 176 221 176z" />
    <glyph glyph-name="ograve" unicode="&#xf2;" horiz-adv-x="1071" 
d="M602 1114q211 0 299 -137t37 -432q-102 -572 -573 -572q-312 0 -346 310q-11 109 16 260q103 571 567 571zM716 838q-38 90 -150 90t-184 -85t-118 -294q-47 -209 -8 -299t152 -90t183 84t116 294q47 210 9 300zM590 1536l133 -324h-182l-174 324h223z" />
    <glyph glyph-name="oacute" unicode="&#xf3;" horiz-adv-x="1071" 
d="M602 1114q211 0 299 -137t37 -432q-102 -572 -573 -572q-312 0 -346 310q-11 109 16 260q103 571 567 571zM716 838q-38 90 -150 90t-184 -85t-118 -294q-47 -209 -8 -299t152 -90t183 84t116 294q47 210 9 300zM1018 1536l-305 -324h-191l269 324h227z" />
    <glyph glyph-name="ocircumflex" unicode="&#xf4;" horiz-adv-x="1071" 
d="M602 1114q211 0 299 -137t37 -432q-102 -572 -573 -572q-312 0 -346 310q-11 109 16 260q103 571 567 571zM716 838q-38 90 -150 90t-184 -85t-118 -294q-47 -209 -8 -299t152 -90t183 84t116 294q47 210 9 300zM518 1212h-184l262 324h201l127 -324h-170l-80 187z" />
    <glyph glyph-name="otilde" unicode="&#xf5;" horiz-adv-x="1071" 
d="M602 1114q211 0 299 -137t37 -432q-102 -572 -573 -572q-312 0 -346 310q-11 109 16 260q103 571 567 571zM716 838q-38 90 -150 90t-184 -85t-118 -294q-47 -209 -8 -299t152 -90t183 84t116 294q47 210 9 300zM559 1487q55 0 119 -32t92 -34q63 0 98 78l121 -63
q-88 -176 -239 -176q-43 0 -108 34t-95 33q-50 0 -88 -78l-121 62q81 176 221 176z" />
    <glyph glyph-name="odieresis" unicode="&#xf6;" horiz-adv-x="1071" 
d="M602 1114q211 0 299 -137t37 -432q-102 -572 -573 -572q-312 0 -346 310q-11 109 16 260q103 571 567 571zM716 838q-38 90 -150 90t-184 -85t-118 -294q-47 -209 -8 -299t152 -90t183 84t116 294q47 210 9 300zM938 1481l-43 -211h-182l43 211h182zM612 1481l-43 -211
h-182l43 211h182z" />
    <glyph glyph-name="divide" unicode="&#xf7;" 
d="M748 1130l-46 -212h-219l45 212h220zM940 584h-836l41 194h836zM602 440l-45 -213h-219l45 213h219z" />
    <glyph glyph-name="oslash" unicode="&#xf8;" horiz-adv-x="1071" 
d="M562 928q-108 0 -179 -84t-119 -301q-25 -111 -24 -185l469 494q-39 76 -147 76zM410 160q110 0 180.5 84t118.5 301q25 111 24 186l-473 -493q40 -78 150 -78zM608 1114q170 0 260 -96l123 131l82 -62l-149 -157q57 -137 14 -385q-102 -572 -573 -572q-177 0 -263 99
l-129 -135l-73 63l149 158q-57 137 -14 385q103 571 573 571z" />
    <glyph glyph-name="ugrave" unicode="&#xf9;" horiz-adv-x="1130" 
d="M268 324q-30 -138 88 -138q55 0 145 47q91 47 140 109l158 745h223l-170 -823q-14 -74 43 -74q42 0 119 52l-33 -209q-79 -58 -170 -59q-90 -1 -138 37t-40 118q-181 -156 -361 -156q-128 0 -194 94t-27 283l156 737h223zM596 1536l133 -324h-182l-174 324h223z" />
    <glyph glyph-name="uacute" unicode="&#xfa;" horiz-adv-x="1130" 
d="M268 324q-30 -138 88 -138q55 0 145 47q91 47 140 109l158 745h223l-170 -823q-14 -74 43 -74q42 0 119 52l-33 -209q-79 -58 -170 -59q-90 -1 -138 37t-40 118q-181 -156 -361 -156q-128 0 -194 94t-27 283l156 737h223zM1024 1536l-305 -324h-191l269 324h227z" />
    <glyph glyph-name="ucircumflex" unicode="&#xfb;" horiz-adv-x="1130" 
d="M268 324q-30 -138 88 -138q55 0 145 47q91 47 140 109l158 745h223l-170 -823q-14 -74 43 -74q42 0 119 52l-33 -209q-79 -58 -170 -59q-90 -1 -138 37t-40 118q-181 -156 -361 -156q-128 0 -194 94t-27 283l156 737h223zM520 1212h-184l262 324h201l127 -324h-170
l-80 187z" />
    <glyph glyph-name="udieresis" unicode="&#xfc;" horiz-adv-x="1130" 
d="M268 324q-30 -138 88 -138q55 0 145 47q91 47 140 109l158 745h223l-170 -823q-14 -74 43 -74q42 0 119 52l-33 -209q-79 -58 -170 -59q-90 -1 -138 37t-40 118q-181 -156 -361 -156q-128 0 -194 94t-27 283l156 737h223zM952 1481l-43 -211h-182l43 211h182zM627 1481
l-43 -211h-183l43 211h183z" />
    <glyph glyph-name="yacute" unicode="&#xfd;" horiz-adv-x="1118" 
d="M284 -27q-155 -1 -211 103t-22 274l156 737h223l-162 -763q-16 -74 8 -106t80 -32q55 0 145 47q91 47 140 109l158 745h223l-250 -1185q-78 -373 -487 -373q-234 0 -404 129l88 176q141 -108 334 -106q84 0 153 38t91 138l41 182q-149 -113 -304 -113zM1030 1536
l-305 -324h-190l268 324h227z" />
    <glyph glyph-name="thorn" unicode="&#xfe;" horiz-adv-x="1128" 
d="M444 160q237 0 316 395q55 298 -5.5 328t-98.5 30q-68 0 -130 -30t-139 -84l-123 -580q80 -59 180 -59zM432 1010q157 104 312 104q342 0 251 -559q-47 -299 -203 -440.5t-366 -141.5q-107 0 -205 50l-94 -445l-233 -49l417 1966l234 41z" />
    <glyph glyph-name="ydieresis" unicode="&#xff;" horiz-adv-x="1118" 
d="M284 -27q-155 -1 -211 103t-22 274l156 737h223l-162 -763q-16 -74 8 -106t80 -32q55 0 145 47q91 47 140 109l158 745h223l-250 -1185q-78 -373 -487 -373q-234 0 -404 129l88 176q141 -108 334 -106q84 0 153 38t91 138l41 182q-149 -113 -304 -113zM950 1481l-43 -211
h-182l43 211h182zM625 1481l-43 -211h-183l43 211h183z" />
    <glyph glyph-name="Amacron" unicode="&#x100;" horiz-adv-x="1114" 
d="M328 537h385l-54 659zM729 338h-502l-170 -338h-235l739 1434h295l133 -1434h-233zM479 1626l35 160h545l-35 -160h-545z" />
    <glyph glyph-name="amacron" unicode="&#x101;" horiz-adv-x="1130" 
d="M602 1114q129 0 224 -27t186 -69l-164 -754q-18 -72 43 -74q42 0 119 52l-27 -209q-79 -58 -193 -59q-113 -1 -150 84q-13 30 -9 71q-170 -156 -335 -156t-237 141q-77 156 -24 440q52 284 225 433q146 127 342 127zM612 928q-72 0 -117 -16q-46 -16 -88 -57
q-94 -94 -137 -299q-43 -206 -14 -289t131 -83t254 152l119 553q-76 39 -148 39zM373 1294l35 160h544l-34 -160h-545z" />
    <glyph glyph-name="Abreve" unicode="&#x102;" horiz-adv-x="1114" 
d="M328 537h385l-54 659zM729 338h-502l-170 -338h-235l739 1434h295l133 -1434h-233zM748 1722q102 0 147 117h166q-37 -129 -126 -200t-216 -71t-184 72q-57 70 -39 199h157q-7 -117 95 -117z" />
    <glyph glyph-name="abreve" unicode="&#x103;" horiz-adv-x="1130" 
d="M602 1114q129 0 224 -27t186 -69l-164 -754q-18 -72 43 -74q42 0 119 52l-27 -209q-79 -58 -193 -59q-113 -1 -150 84q-13 30 -9 71q-170 -156 -335 -156t-237 141q-77 156 -24 440q52 284 225 433q146 127 342 127zM612 928q-72 0 -117 -16q-46 -16 -88 -57
q-94 -94 -137 -299q-43 -206 -14 -289t131 -83t254 152l119 553q-76 39 -148 39zM633 1239q-127 0 -184 71t-39 199h157q-8 -117 95 -116q102 0 147 116h166q-37 -129 -126 -199t-216 -71z" />
    <glyph glyph-name="Aogonek" unicode="&#x104;" horiz-adv-x="1114" 
d="M328 537h385l-54 659zM797 -182q0 -47 50 -47t97 45l74 -109q-88 -100 -223 -100q-86 0 -134.5 46t-48.5 124q0 138 144 223l-27 338h-502l-170 -338h-235l739 1434h295l133 -1434h-35q-157 -88 -157 -182z" />
    <glyph glyph-name="aogonek" unicode="&#x105;" horiz-adv-x="1130" 
d="M612 928q-72 0 -117.5 -15.5t-113.5 -83.5t-111 -274q-43 -205 -14 -288t124 -83q109 0 261 152l119 553q-76 39 -148 39zM602 1114q129 0 224.5 -26.5t185.5 -69.5l-164 -754q-19 -74 33 -74t129 52l-27 -209q-33 -16 -72 -34.5t-93 -61.5t-54 -119q0 -47 50 -47t97 45
l74 -109q-88 -100 -223 -100q-86 0 -134 46t-48 124q0 131 129 215q-86 37 -78 137q-170 -156 -336 -156t-239.5 149t-20.5 432q52 283 211.5 421.5t355.5 138.5z" />
    <glyph glyph-name="Cacute" unicode="&#x106;" horiz-adv-x="1142" 
d="M774 1460q202 0 288 -121t56 -309l-219 -26q14 114 -9 162q-44 91 -163 89q-168 0 -261 -122t-155 -418q-63 -295 -1 -422q58 -115 238 -115q179 0 372 109l-5 -211q-196 -103 -428 -103q-410 0 -432 430q-6 139 29 318q76 389 248 564t442 175zM1206 1868l-305 -324
h-190l268 324h227z" />
    <glyph glyph-name="cacute" unicode="&#x107;" horiz-adv-x="964" 
d="M596 1114q184 0 252 -102q69 -102 43 -271q-109 -8 -213 -20q14 92 -7 132q-39 73 -132 74q-94 1 -161 -88t-110 -296q-80 -379 148 -379q157 0 321 106l8 -196q-172 -101 -389 -101q-301 0 -337 317q-11 108 18 255q109 569 559 569zM999 1536l-305 -324h-190l268 324
h227z" />
    <glyph glyph-name="Ccircumflex" unicode="&#x108;" horiz-adv-x="1142" 
d="M774 1460q202 0 288 -121t56 -309l-219 -26q14 114 -9 162q-44 91 -163 89q-168 0 -261 -122t-155 -418q-63 -295 -1 -422q58 -115 238 -115q179 0 372 109l-5 -211q-196 -103 -428 -103q-410 0 -432 430q-6 139 29 318q76 389 248 564t442 175zM682 1544h-184l262 324
h201l126 -324h-169l-80 187z" />
    <glyph glyph-name="ccircumflex" unicode="&#x109;" horiz-adv-x="964" 
d="M596 1114q184 0 252 -102q69 -102 43 -271q-109 -8 -213 -20q14 92 -7 132q-39 73 -132 74q-94 1 -161 -88t-110 -296q-80 -379 148 -379q157 0 321 106l8 -196q-172 -101 -389 -101q-301 0 -337 317q-11 108 18 255q109 569 559 569zM506 1212h-184l262 324h200
l127 -324h-170l-79 187z" />
    <glyph glyph-name="Cdotaccent" unicode="&#x10a;" horiz-adv-x="1142" 
d="M774 1460q202 0 288 -121t56 -309l-219 -26q14 114 -9 162q-44 91 -163 89q-168 0 -261 -122t-155 -418q-63 -295 -1 -422q58 -115 238 -115q179 0 372 109l-5 -211q-196 -103 -428 -103q-410 0 -432 430q-6 139 29 318q76 389 248 564t442 175zM944 1810l-43 -211h-190
l43 211h190z" />
    <glyph glyph-name="cdotaccent" unicode="&#x10b;" horiz-adv-x="964" 
d="M596 1114q184 0 252 -102q69 -102 43 -271q-109 -8 -213 -20q14 92 -7 132q-39 73 -132 74q-94 1 -161 -88t-110 -296q-80 -379 148 -379q157 0 321 106l8 -196q-172 -101 -389 -101q-301 0 -337 317q-11 108 18 255q109 569 559 569zM770 1481l-43 -211h-190l43 211h190
z" />
    <glyph glyph-name="Ccaron" unicode="&#x10c;" horiz-adv-x="1142" 
d="M774 1460q202 0 288 -121t56 -309l-219 -26q14 114 -9 162q-44 91 -163 89q-168 0 -261 -122t-155 -418q-63 -295 -1 -422q58 -115 238 -115q179 0 372 109l-5 -211q-196 -103 -428 -103q-410 0 -432 430q-6 139 29 318q76 389 248 564t442 175zM817 1681l148 187h190
l-262 -324h-201l-127 324h176z" />
    <glyph glyph-name="ccaron" unicode="&#x10d;" horiz-adv-x="964" 
d="M596 1114q184 0 252 -102q69 -102 43 -271q-109 -8 -213 -20q14 92 -7 132q-39 73 -132 74q-94 1 -161 -88t-110 -296q-80 -379 148 -379q157 0 321 106l8 -196q-172 -101 -389 -101q-301 0 -337 317q-11 108 18 255q109 569 559 569zM641 1350l147 186h191l-262 -324
h-201l-127 324h176z" />
    <glyph glyph-name="Dcaron" unicode="&#x10e;" horiz-adv-x="1302" 
d="M522 205q177 0 291 114t182 416q86 395 -107 470q-62 24 -149 24h-223l-217 -1024h223zM799 1434q398 0 445 -381q16 -131 -22 -323q-73 -372 -264 -551t-471 -179h-454l305 1434h461zM860 1681l148 187h190l-262 -324h-201l-127 324h176z" />
    <glyph glyph-name="dcaron" unicode="&#x10f;" horiz-adv-x="1302" 
d="M564 928q-54 0 -93 -15.5t-98.5 -83t-102.5 -273.5t-14 -289t131 -83t254 152l113 526q-45 25 -90.5 45.5t-99.5 20.5zM543 1114q120 0 250 -67l94 448l233 41l-272 -1272q-14 -74 43 -74q42 0 119 52l-27 -209q-82 -60 -194 -60t-137 57.5t-21 98.5q-170 -156 -336 -156
t-239.5 149t-20.5 432q52 283 194.5 421.5t313.5 138.5zM1499 1434l-244 -486h-161l196 486h209z" />
    <glyph glyph-name="Dcroat" unicode="&#x110;" horiz-adv-x="1302" 
d="M522 205q177 0 292.5 116t180.5 414q86 398 -42 446t-214 48h-223l-86 -400h311l-41 -198h-311l-90 -426h223zM799 1434q258 0 376.5 -172t45.5 -538q-72 -366 -263.5 -545t-470.5 -179h-454l133 631h-150l41 198h152l129 605h461z" />
    <glyph glyph-name="dcroat" unicode="&#x111;" horiz-adv-x="1198" 
d="M566 928q-54 0 -93 -15.5t-98.5 -83t-102.5 -273.5t-14 -289t131 -83t254 152l113 526q-45 25 -90.5 45.5t-99.5 20.5zM545 1114q120 0 250 -67l36 182h-364l29 141h366l27 125l233 41l-37 -166h160l-28 -141h-160l-207 -965q-14 -74 43 -74q42 0 119 52l-27 -209
q-82 -60 -194 -60t-137 57.5t-21 98.5q-170 -156 -336 -156t-239.5 149t-20.5 432q52 283 194.5 421.5t313.5 138.5z" />
    <glyph glyph-name="Emacron" unicode="&#x112;" horiz-adv-x="1083" 
d="M1104 1434l-43 -205h-553l-84 -395h528l-45 -207h-528l-90 -422h581l-43 -205h-802l305 1434h774zM473 1634l35 160h545l-35 -160h-545z" />
    <glyph glyph-name="emacron" unicode="&#x113;" horiz-adv-x="1021" 
d="M596 1114q200 0 274 -125q75 -125 33 -332l-37 -174h-614q-31 -176 15 -253q43 -68 157 -68q168 0 352 106l8 -190q-179 -105 -401 -105q-445 0 -348 570q77 435 367 538q92 33 194 33zM552 928q-100 0 -160 -66t-99 -205h385q29 139 1 205t-127 66zM375 1294l35 160h544
l-34 -160h-545z" />
    <glyph glyph-name="Ebreve" unicode="&#x114;" horiz-adv-x="1083" 
d="M1104 1434l-43 -205h-553l-84 -395h528l-45 -207h-528l-90 -422h581l-43 -205h-802l305 1434h774zM735 1577q-127 0 -184 71t-39 199h158q-8 -117 94 -116q102 0 147 116h166q-37 -129 -126 -199t-216 -71z" />
    <glyph glyph-name="ebreve" unicode="&#x115;" horiz-adv-x="1021" 
d="M596 1114q200 0 274 -125q75 -125 33 -332l-37 -174h-614q-31 -176 15 -253q43 -68 157 -68q168 0 352 106l8 -190q-179 -105 -401 -105q-445 0 -348 570q77 435 367 538q92 33 194 33zM552 928q-100 0 -160 -66t-99 -205h385q29 139 1 205t-127 66zM637 1239
q-127 0 -184 71t-39 199h157q-8 -117 95 -116q102 0 147 116h166q-37 -129 -126 -199t-216 -71z" />
    <glyph glyph-name="Edotaccent" unicode="&#x116;" horiz-adv-x="1083" 
d="M1104 1434l-43 -205h-553l-84 -395h528l-45 -207h-528l-90 -422h581l-43 -205h-802l305 1434h774zM879 1819l-43 -211h-191l43 211h191z" />
    <glyph glyph-name="edotaccent" unicode="&#x117;" horiz-adv-x="1021" 
d="M596 1114q200 0 274 -125q75 -125 33 -332l-37 -174h-614q-31 -176 15 -253q43 -68 157 -68q168 0 352 106l8 -190q-179 -105 -401 -105q-445 0 -348 570q77 435 367 538q92 33 194 33zM552 928q-100 0 -160 -66t-99 -205h385q29 139 1 205t-127 66zM780 1481l-43 -211
h-190l43 211h190z" />
    <glyph glyph-name="Eogonek" unicode="&#x118;" horiz-adv-x="1083" 
d="M543 -182q0 -47 50 -47t97 45l74 -109q-88 -100 -223 -100q-86 0 -134.5 46t-48.5 124q0 138 144 223h-477l305 1434h774l-43 -205h-553l-84 -395h528l-45 -207h-528l-90 -422h581l-43 -205h-127q-157 -88 -157 -182z" />
    <glyph glyph-name="eogonek" unicode="&#x119;" horiz-adv-x="1021" 
d="M552 928q-99 0 -159.5 -65.5t-99.5 -205.5h385q29 139 1 205t-127 66zM596 1114q200 0 275 -126.5t32 -330.5l-37 -174h-614q-45 -257 36.5 -289t143.5 -32t157 26.5t187 79.5l8 -190q-116 -66 -239 -88q-137 -84 -137 -172q0 -47 49 -47t98 45l74 -109
q-88 -100 -223 -100q-86 0 -134.5 46t-48.5 124q0 122 107 198q-388 34 -295 568q77 435 268 503t293 68z" />
    <glyph glyph-name="Ecaron" unicode="&#x11a;" horiz-adv-x="1083" 
d="M1104 1434l-43 -205h-553l-84 -395h528l-45 -207h-528l-90 -422h581l-43 -205h-802l305 1434h774zM752 1681l147 187h191l-263 -324h-200l-127 324h176z" />
    <glyph glyph-name="ecaron" unicode="&#x11b;" horiz-adv-x="1021" 
d="M596 1114q200 0 274 -125q75 -125 33 -332l-37 -174h-614q-31 -176 15 -253q43 -68 157 -68q168 0 352 106l8 -190q-179 -105 -401 -105q-445 0 -348 570q77 435 367 538q92 33 194 33zM552 928q-100 0 -160 -66t-99 -205h385q29 139 1 205t-127 66zM664 1350l147 186
h190l-262 -324h-200l-127 324h176z" />
    <glyph glyph-name="Gcircumflex" unicode="&#x11c;" horiz-adv-x="1314" 
d="M827 1460q221 0 323 -126q103 -126 77 -306l-217 -24q14 112 -31 182t-188 69q-179 0 -297 -122t-177 -400q-94 -437 74 -526q53 -29 138 -29q152 0 337 121l56 272h-291l43 197h514l-164 -768h-205l19 84q-155 -107 -363 -111q-244 0 -354 188t-31 570q150 729 737 729z
M702 1544h-184l262 324h201l127 -324h-170l-80 187z" />
    <glyph glyph-name="gcircumflex" unicode="&#x11d;" horiz-adv-x="1122" 
d="M602 1114q129 0 224 -27t186 -69l-236 -1112q-78 -377 -487 -377q-234 0 -404 129l88 176q141 -108 334 -106q84 0 154 38t92 138l41 194q-155 -125 -309 -125t-225 133q-79 154 -29 443t226 438q148 127 345 127zM612 928q-70 0 -117 -16q-46 -16 -89 -57
q-94 -92 -138 -299q-43 -206 -14 -289t132 -83t255 152l117 553q-76 39 -146 39zM520 1212h-184l262 324h201l127 -324h-170l-80 187z" />
    <glyph glyph-name="Gbreve" unicode="&#x11e;" horiz-adv-x="1314" 
d="M827 1460q221 0 323 -126q103 -126 77 -306l-217 -24q14 112 -31 182t-188 69q-179 0 -297 -122t-177 -400q-94 -437 74 -526q53 -29 138 -29q152 0 337 121l56 272h-291l43 197h514l-164 -768h-205l19 84q-155 -107 -363 -111q-244 0 -354 188t-31 570q150 729 737 729z
M811 1577q-127 0 -184 71t-39 199h157q-8 -117 95 -116q102 0 147 116h166q-37 -129 -126 -199t-216 -71z" />
    <glyph glyph-name="gbreve" unicode="&#x11f;" horiz-adv-x="1122" 
d="M602 1114q129 0 224 -27t186 -69l-236 -1112q-78 -377 -487 -377q-234 0 -404 129l88 176q141 -108 334 -106q84 0 154 38t92 138l41 194q-155 -125 -309 -125t-225 133q-79 154 -29 443t226 438q148 127 345 127zM612 928q-70 0 -117 -16q-46 -16 -89 -57
q-94 -92 -138 -299q-43 -206 -14 -289t132 -83t255 152l117 553q-76 39 -146 39zM629 1239q-127 0 -185 71q-57 71 -38 199h157q-8 -117 94 -116q102 0 148 116h166q-37 -129 -126 -199t-216 -71z" />
    <glyph glyph-name="Gdotaccent" unicode="&#x120;" horiz-adv-x="1314" 
d="M827 1460q221 0 323 -126q103 -126 77 -306l-217 -24q14 112 -31 182t-188 69q-179 0 -297 -122t-177 -400q-94 -437 74 -526q53 -29 138 -29q152 0 337 121l56 272h-291l43 197h514l-164 -768h-205l19 84q-155 -107 -363 -111q-244 0 -354 188t-31 570q150 729 737 729z
M975 1819l-43 -211h-191l43 211h191z" />
    <glyph glyph-name="gdotaccent" unicode="&#x121;" horiz-adv-x="1122" 
d="M602 1114q129 0 224 -27t186 -69l-236 -1112q-78 -377 -487 -377q-234 0 -404 129l88 176q141 -108 334 -106q84 0 154 38t92 138l41 194q-155 -125 -309 -125t-225 133q-79 154 -29 443t226 438q148 127 345 127zM612 928q-70 0 -117 -16q-46 -16 -89 -57
q-94 -92 -138 -299q-43 -206 -14 -289t132 -83t255 152l117 553q-76 39 -146 39zM795 1481l-43 -211h-191l43 211h191z" />
    <glyph glyph-name="Gcommaaccent" unicode="&#x122;" horiz-adv-x="1314" 
d="M827 1460q221 0 323 -126q103 -126 77 -306l-217 -24q14 112 -31 182t-188 69q-179 0 -297 -122t-177 -400q-94 -437 74 -526q53 -29 138 -29q152 0 337 121l56 272h-291l43 197h514l-164 -768h-205l19 84q-155 -107 -363 -111q-244 0 -354 188t-31 570q150 729 737 729z
M635 -80l-305 -323h-191l269 323h227z" />
    <glyph glyph-name="gcommaaccent" unicode="&#x123;" horiz-adv-x="1122" 
d="M602 1114q129 0 224 -27t186 -69l-236 -1112q-78 -377 -487 -377q-234 0 -404 129l88 176q141 -108 334 -106q84 0 154 38t92 138l41 194q-155 -125 -309 -125t-225 133q-79 154 -29 443t226 438q148 127 345 127zM612 928q-70 0 -117 -16q-46 -16 -89 -57
q-94 -92 -138 -299q-43 -206 -14 -289t132 -83t255 152l117 553q-76 39 -146 39zM479 1188l305 323h191l-268 -323h-228z" />
    <glyph glyph-name="Hcircumflex" unicode="&#x124;" horiz-adv-x="1384" 
d="M551 1434l-127 -600h586l127 600h221l-305 -1434h-222l134 621h-586l-133 -621h-221l305 1434h221zM758 1544h-185l263 324h200l127 -324h-170l-80 187z" />
    <glyph glyph-name="hcircumflex" unicode="&#x125;" horiz-adv-x="1153" 
d="M428 1006q185 108 342 108t215 -95t27 -251l-162 -768h-223l164 764q33 147 -105 147q-101 0 -234 -72q-36 -19 -67 -36l-170 -803h-223l317 1493l232 41zM332 1624h-185l263 324h200l127 -324h-170l-80 186z" />
    <glyph glyph-name="Hbar" unicode="&#x126;" horiz-adv-x="1400" 
d="M1018 834l49 231h-586l-49 -231h586zM559 1434l-45 -213h586l45 213h221l-45 -213h154l-33 -156h-154l-227 -1065h-221l133 621h-586l-133 -621h-221l227 1065h-154l33 156h154l45 213h221z" />
    <glyph glyph-name="hbar" unicode="&#x127;" horiz-adv-x="1155" 
d="M430 1006q185 108 344 108q158 0 214 -96t26 -250l-162 -768h-223l164 764q33 147 -105 147q-93 0 -181.5 -46t-119.5 -62l-170 -803h-223l260 1229h-156l31 141h156l26 123l232 41l-35 -164h371l-31 -141h-371z" />
    <glyph glyph-name="Itilde" unicode="&#x128;" horiz-adv-x="577" 
d="M551 1434l-305 -1434h-221l305 1434h221zM606 1751q63 0 99 78l120 -64q-88 -176 -239 -176q-45 0 -108 34t-94 34q-32 0 -52 -22t-37 -56l-121 61q80 175 221 177q49 -1 97 -23t70 -32t44 -11z" />
    <glyph glyph-name="itilde" unicode="&#x129;" horiz-adv-x="542" 
d="M291 1487q52 0 118 -32t93 -34q63 0 98 78l121 -63q-88 -176 -240 -176q-42 0 -107 34t-95 33q-31 0 -52 -21q-20 -22 -37 -57l-120 62q81 176 221 176zM446 1087l-231 -1087h-223l231 1087h223z" />
    <glyph glyph-name="Imacron" unicode="&#x12a;" horiz-adv-x="577" 
d="M551 1434l-305 -1434h-221l305 1434h221zM211 1626l35 160h545l-35 -160h-545z" />
    <glyph glyph-name="imacron" unicode="&#x12b;" horiz-adv-x="542" 
d="M109 1294l34 160h545l-35 -160h-544zM446 1087l-231 -1087h-223l231 1087h223z" />
    <glyph glyph-name="Ibreve" unicode="&#x12c;" horiz-adv-x="577" 
d="M551 1434l-305 -1434h-221l305 1434h221zM498 1722q102 0 147 117h166q-37 -129 -126 -200t-216 -71t-184 72q-57 70 -39 199h157q-7 -117 95 -117z" />
    <glyph glyph-name="ibreve" unicode="&#x12d;" horiz-adv-x="542" 
d="M371 1239q-127 0 -185 71q-57 71 -39 199h158q-8 -117 94 -116q102 0 148 116h166q-37 -129 -126 -199t-216 -71zM446 1087l-231 -1087h-223l231 1087h223z" />
    <glyph glyph-name="Iogonek" unicode="&#x12e;" horiz-adv-x="577" 
d="M-96 -223q0 137 143 223h-22l305 1434h221l-305 -1434q-158 -89 -158 -182q0 -47 50 -47t98 45l73 -109q-88 -100 -223 -100q-86 0 -134 46t-48 124z" />
    <glyph glyph-name="iogonek" unicode="&#x12f;" horiz-adv-x="542" 
d="M528 1475l-51 -242h-223l51 242h223zM-127 -223q0 137 143 223h-24l231 1087h223l-231 -1087q-158 -89 -158 -182q0 -47 50 -47t98 45l74 -109q-88 -100 -224 -100q-86 0 -134 46t-48 124z" />
    <glyph glyph-name="Idotaccent" unicode="&#x130;" horiz-adv-x="577" 
d="M551 1434l-305 -1434h-221l305 1434h221zM618 1810l-43 -211h-190l43 211h190z" />
    <glyph glyph-name="dotlessi" unicode="&#x131;" horiz-adv-x="542" 
d="M446 1087l-231 -1087h-223l231 1087h223z" />
    <glyph glyph-name="Jcircumflex" unicode="&#x134;" horiz-adv-x="624" 
d="M20 178q54 0 80 25t39 86l242 1145h223l-250 -1174q-32 -147 -110 -217t-204 -70t-202 60l76 186q52 -41 106 -41zM410 1544h-185l262 324h201l127 -324h-170l-80 187z" />
    <glyph glyph-name="jcircumflex" unicode="&#x135;" horiz-adv-x="542" 
d="M246 1212h-185l263 324h200l127 -324h-170l-80 187zM-153 -471q-120 0 -209 55l73 180q59 -36 117 -36t86.5 25.5t42.5 86.5l266 1247h223l-276 -1290q-29 -135 -116 -201.5t-207 -66.5z" />
    <glyph glyph-name="Kcommaaccent" unicode="&#x136;" horiz-adv-x="1171" 
d="M551 1434l-148 -699l650 699h256l-564 -603l275 -831h-244l-215 645l-227 -244l-86 -401h-223l305 1434h221zM647 -82l-309 -324h-191l271 324h229z" />
    <glyph glyph-name="kcommaaccent" unicode="&#x137;" horiz-adv-x="1009" 
d="M215 0h-221l315 1495l232 41l-191 -889l455 440h260l-436 -436l254 -651h-246l-188 498l-160 -154zM522 -82l-315 -324h-180l268 324h227z" />
    <glyph glyph-name="Lacute" unicode="&#x139;" horiz-adv-x="940" 
d="M551 1434l-262 -1229h514l-43 -205h-735l305 1434h221zM862 1868l-305 -324h-190l268 324h227z" />
    <glyph glyph-name="lacute" unicode="&#x13a;" horiz-adv-x="550" 
d="M254 192q18 -14 65 -14t127 45l-24 -198q-86 -49 -202 -51q-116 -1 -172 65t-28 203l265 1253l233 41l-272 -1286q-10 -44 8 -58zM819 1913l-305 -324h-190l268 324h227z" />
    <glyph glyph-name="Lcommaaccent" unicode="&#x13b;" horiz-adv-x="940" 
d="M551 1434l-262 -1229h514l-43 -205h-735l305 1434h221zM512 -82l-307 -324h-191l269 324h229z" />
    <glyph glyph-name="lcommaaccent" unicode="&#x13c;" horiz-adv-x="550" 
d="M254 191.5q18 -13.5 62 -13.5t130 45l-24 -198q-91 -52 -204 -52q-114 0 -170 65.5t-28 203.5l265 1253l233 41l-272 -1286q-10 -45 8 -58.5zM291 -82l-316 -324h-180l268 324h228z" />
    <glyph glyph-name="Lcaron" unicode="&#x13d;" horiz-adv-x="940" 
d="M551 1434l-262 -1229h514l-43 -205h-735l305 1434h221zM494 1681l147 187h190l-262 -324h-200l-127 324h176z" />
    <glyph glyph-name="lcaron" unicode="&#x13e;" horiz-adv-x="702" 
d="M254 191.5q18 -13.5 62 -13.5t130 45l-24 -198q-91 -52 -204 -52q-114 0 -170 65.5t-28 203.5l265 1253l233 41l-272 -1286q-10 -45 8 -58.5zM877 1434l-246 -486h-162l199 486h209z" />
    <glyph glyph-name="Lslash" unicode="&#x141;" horiz-adv-x="940" 
d="M551 1434l-125 -586l403 158l-41 -193l-403 -158l-96 -450h514l-43 -205h-735l120 563l-172 -67l39 192l172 66l146 680h221z" />
    <glyph glyph-name="lslash" unicode="&#x142;" horiz-adv-x="610" 
d="M229 -27q-180 0 -180 112t12 165l84 393l-165 -84l36 180l168 84l142 672l233 41l-125 -588l170 86l-39 -180l-170 -86l-110 -518q-10 -45 8 -63.5t64 -18.5t128 43l-14 -172q-132 -66 -242 -66z" />
    <glyph glyph-name="Nacute" unicode="&#x143;" horiz-adv-x="1417" 
d="M545 1434l409 -1043l220 1043h217l-306 -1434h-213l-413 1034l-217 -1034h-217l305 1434h215zM1262 1868l-306 -324h-190l268 324h228z" />
    <glyph glyph-name="nacute" unicode="&#x144;" horiz-adv-x="1155" 
d="M401 989q197 125 361 125t223 -95t29 -251l-164 -768h-223l161 764q33 147 -102 147q-101 0 -234 -72q-36 -19 -67 -36l-170 -803h-223l231 1087h201zM1077 1536l-305 -324h-190l268 324h227z" />
    <glyph glyph-name="Ncommaaccent" unicode="&#x145;" horiz-adv-x="1417" 
d="M545 1434l409 -1043l220 1043h217l-306 -1434h-213l-413 1034l-217 -1034h-217l305 1434h215zM690 -82l-307 -324h-190l268 324h229z" />
    <glyph glyph-name="ncommaaccent" unicode="&#x146;" horiz-adv-x="1155" 
d="M401 989q197 125 363 125q165 0 222.5 -95t27.5 -251l-164 -768h-223l161 764q16 72 -7 109.5t-79 37.5t-96.5 -10t-79.5 -26.5t-74.5 -36t-66.5 -35.5l-170 -803h-223l231 1087h201zM537 -82l-316 -324h-180l268 324h228z" />
    <glyph glyph-name="Ncaron" unicode="&#x147;" horiz-adv-x="1417" 
d="M545 1434l409 -1043l220 1043h217l-306 -1434h-213l-413 1034l-217 -1034h-217l305 1434h215zM901 1681l148 187h190l-262 -324h-201l-127 324h176z" />
    <glyph glyph-name="ncaron" unicode="&#x148;" horiz-adv-x="1155" 
d="M401 989q197 125 361 125t223 -95t29 -251l-164 -768h-223l161 764q33 147 -102 147q-101 0 -234 -72q-36 -19 -67 -36l-170 -803h-223l231 1087h201zM702 1350l148 186h190l-262 -324h-200l-127 324h176z" />
    <glyph glyph-name="Eng" unicode="&#x14a;" horiz-adv-x="1417" 
d="M732 -172q54 0 84 24.5t44 86.5l12 61l-413 1034l-217 -1034h-217l305 1434h215l409 -1043l220 1043h217l-324 -1524q-31 -147 -109.5 -217t-204.5 -70t-202 60l76 186q51 -41 105 -41z" />
    <glyph glyph-name="eng" unicode="&#x14b;" horiz-adv-x="1169" 
d="M446 989q197 125 363 125q165 0 222.5 -95t27.5 -251l-209 -971q-29 -135 -116 -201.5t-208 -66.5t-209 55l74 180q59 -36 117 -36t86.5 25.5t42.5 86.5l197 924q16 72 -8 109.5t-80 37.5t-96 -10t-79 -26.5t-74.5 -36t-66.5 -35.5l-170 -803h-223l231 1087h201z" />
    <glyph glyph-name="Omacron" unicode="&#x14c;" horiz-adv-x="1273" 
d="M797 1460q523 0 385 -739q-41 -205 -112 -347q-200 -401 -596 -401q-528 0 -386 740q73 384 276 578q177 169 433 169zM520 178q72 0 138 27q211 87 298 514q116 541 -206 536q-158 0 -266 -123q-109 -123 -170 -412t-1 -426q54 -116 207 -116zM557 1632l35 160h545
l-35 -160h-545z" />
    <glyph glyph-name="omacron" unicode="&#x14d;" horiz-adv-x="1071" 
d="M602 1114q211 0 299 -137t37 -432q-102 -572 -573 -572q-312 0 -346 310q-11 109 16 260q103 571 567 571zM716 838q-38 90 -150 90t-184 -85t-118 -294q-47 -209 -8 -299t152 -90t183 84t116 294q47 210 9 300zM367 1294l34 160h545l-35 -160h-544z" />
    <glyph glyph-name="Obreve" unicode="&#x14e;" horiz-adv-x="1273" 
d="M797 1460q523 0 385 -739q-41 -205 -112 -347q-200 -401 -596 -401q-528 0 -386 740q73 384 276 578q177 169 433 169zM520 178q72 0 138 27q211 87 298 514q116 541 -206 536q-158 0 -266 -123q-109 -123 -170 -412t-1 -426q54 -116 207 -116zM817 1577q-127 0 -184 71
t-39 199h158q-8 -117 94 -116q102 0 147 116h166q-37 -129 -126 -199t-216 -71z" />
    <glyph glyph-name="obreve" unicode="&#x14f;" horiz-adv-x="1071" 
d="M602 1114q211 0 299 -137t37 -432q-102 -572 -573 -572q-312 0 -346 310q-11 109 16 260q103 571 567 571zM716 838q-38 90 -150 90t-184 -85t-118 -294q-47 -209 -8 -299t152 -90t183 84t116 294q47 210 9 300zM633 1239q-127 0 -184 71t-39 199h157q-8 -117 95 -116
q102 0 147 116h166q-37 -129 -126 -199t-216 -71z" />
    <glyph glyph-name="Ohungarumlaut" unicode="&#x150;" horiz-adv-x="1273" 
d="M797 1460q523 0 385 -739q-41 -205 -112 -347q-200 -401 -596 -401q-528 0 -386 740q73 384 276 578q177 169 433 169zM520 178q72 0 138 27q211 87 298 514q116 541 -206 536q-158 0 -266 -123q-109 -123 -170 -412t-1 -426q54 -116 207 -116zM1311 1868l-283 -324h-158
l222 324h219zM971 1868l-223 -324h-148l164 324h207z" />
    <glyph glyph-name="ohungarumlaut" unicode="&#x151;" horiz-adv-x="1071" 
d="M602 1114q211 0 299 -137t37 -432q-102 -572 -573 -572q-312 0 -346 310q-11 109 16 260q103 571 567 571zM716 838q-38 90 -150 90t-184 -85t-118 -294q-47 -209 -8 -299t152 -90t183 84t116 294q47 210 9 300zM1122 1536l-282 -324h-158l221 324h219zM782 1536
l-223 -324h-147l163 324h207z" />
    <glyph glyph-name="OE" unicode="&#x152;" horiz-adv-x="1880" 
d="M561.5 178q112.5 0 222.5 125t170 416q91 424 -22 480t-225.5 56t-221.5 -123t-172 -417q-91 -425 22.5 -481t226 -56zM407.5 -27q-182.5 0 -289.5 186.5t-28 563.5q79 376 266.5 556.5t440.5 180.5q115 0 197.5 -45t115.5 -137l33 156h758l-43 -205h-553l-86 -400h528
l-41 -198h-528l-93 -426h582l-43 -205h-786l32 158q-72 -94 -176 -139.5t-286.5 -45.5z" />
    <glyph glyph-name="oe" unicode="&#x153;" horiz-adv-x="1662" 
d="M1214.5 928q-98.5 0 -158 -62.5t-98.5 -208.5h383q29 139 0.5 205t-127 66zM716 838q-38 90 -150 90t-182.5 -83.5t-118.5 -294.5q-48 -210 -9 -300t151 -90t183 84t117 294q47 210 9 300zM606 1114q227 0 299 -170q125 170 343 170t286 -118.5t25 -336.5l-39 -176h-600
q-44 -260 47.5 -291.5t148.5 -31.5q148 0 309 106l-4 -172q-198 -121 -389 -121q-225 0 -287 158q-139 -158 -380 -158q-313 0 -335 209t5 360q53 294 198.5 433t372.5 139z" />
    <glyph glyph-name="Racute" unicode="&#x154;" horiz-adv-x="1157" 
d="M557 737q135 1 215 57t110 195t-21 190q-50 50 -195 50h-158l-102 -479q80 -13 151 -13zM490 539q-45 0 -128 10l-116 -549h-221l305 1434h381q469 0 403 -439q-29 -172 -117 -270t-196 -139l143 -586h-246l-120 545q-43 -6 -88 -6zM1130 1868l-305 -324h-190l268 324
h227z" />
    <glyph glyph-name="racute" unicode="&#x155;" horiz-adv-x="868" 
d="M705 1114q161 0 147 -192q-4 -55 -16 -115l-203 -23q9 58 6 76q-7 35 -52 35q-72 0 -208 -117l-164 -778h-223l231 1087h201l-25 -106q155 133 306 133zM940 1536l-305 -324h-191l269 324h227z" />
    <glyph glyph-name="Rcommaaccent" unicode="&#x156;" horiz-adv-x="1157" 
d="M557 737q135 0 215 56.5t110 196.5t-21 189.5t-195 49.5h-158l-102 -479q80 -13 151 -13zM490 539q-45 0 -128 10l-116 -549h-221l305 1434h381q473 0 403 -439q-29 -172 -117 -270t-196 -139l143 -586h-246l-120 545q-43 -6 -88 -6zM614 -82l-315 -324h-180l268 324h227
z" />
    <glyph glyph-name="rcommaaccent" unicode="&#x157;" horiz-adv-x="868" 
d="M705 1114q161 0 152 -124t-21 -183l-203 -23q9 59 4 85t-50 26q-72 0 -208 -117l-164 -778h-223l231 1087h201l-25 -106q155 133 306 133zM201 -82l-316 -324h-178l266 324h228z" />
    <glyph glyph-name="Rcaron" unicode="&#x158;" horiz-adv-x="1157" 
d="M557 737q135 1 215 57t110 195t-21 190q-50 50 -195 50h-158l-102 -479q80 -13 151 -13zM490 539q-45 0 -128 10l-116 -549h-221l305 1434h381q469 0 403 -439q-29 -172 -117 -270t-196 -139l143 -586h-246l-120 545q-43 -6 -88 -6zM799 1681l147 187h191l-263 -324h-200
l-127 324h176z" />
    <glyph glyph-name="rcaron" unicode="&#x159;" horiz-adv-x="868" 
d="M705 1114q161 0 147 -192q-4 -55 -16 -115l-203 -23q9 58 6 76q-7 35 -52 35q-72 0 -208 -117l-164 -778h-223l231 1087h201l-25 -106q155 133 306 133zM590 1350l147 186h191l-262 -324h-201l-127 324h176z" />
    <glyph glyph-name="Sacute" unicode="&#x15a;" horiz-adv-x="1099" 
d="M652 1255q-76 0 -144 -42t-88 -134q-28 -128 153 -252q51 -35 105 -71t103 -76q175 -143 139 -342q-36 -179 -173 -272t-344 -93q-129 1 -237 51t-178 148l114 172q62 -86 154 -127t188 -41q217 0 250 168q14 66 -22 115q-56 74 -227 186q-172 113 -231 251
q-34 79 -17 189q29 182 165 279q137 96 339 96t296 -133q83 -114 60 -280l-213 -35q4 45 1 89q-11 154 -193 154zM1118 1868l-305 -324h-190l268 324h227z" />
    <glyph glyph-name="sacute" unicode="&#x15b;" horiz-adv-x="905" 
d="M504 295q0 43 -38 79t-130 84t-138 85q-108 87 -108 211q0 156 119 258t295 102t251 -95t58 -249q-52 -4 -190 -25q28 191 -134 191q-78 0 -130 -39t-53 -95t40 -100t167 -106q125 -62 179 -151q31 -49 31 -127q0 -157 -114 -251t-266 -94q-272 0 -392 150l88 170
q103 -137 303 -137q54 0 108 32t54 107zM938 1536l-305 -324h-191l269 324h227z" />
    <glyph glyph-name="Scircumflex" unicode="&#x15c;" horiz-adv-x="1099" 
d="M652 1255q-76 0 -144 -42t-88 -134q-28 -128 153 -252q51 -35 105 -71t103 -76q175 -143 139 -342q-36 -179 -173 -272t-344 -93q-129 1 -237 51t-178 148l114 172q62 -86 154 -127t188 -41q217 0 250 168q14 66 -22 115q-56 74 -227 186q-172 113 -231 251
q-34 79 -17 189q29 182 165 279q137 96 339 96t296 -133q83 -114 60 -280l-213 -35q4 45 1 89q-11 154 -193 154zM627 1544h-185l263 324h200l127 -324h-170l-80 187z" />
    <glyph glyph-name="scircumflex" unicode="&#x15d;" horiz-adv-x="905" 
d="M504 295q0 43 -38 79t-130 84t-138 85q-108 87 -108 211q0 156 119 258t295 102t251 -95t58 -249q-52 -4 -190 -25q28 191 -134 191q-78 0 -130 -39t-53 -95t40 -100t167 -106q125 -62 179 -151q31 -49 31 -127q0 -157 -114 -251t-266 -94q-272 0 -392 150l88 170
q103 -137 303 -137q54 0 108 32t54 107zM444 1212h-184l262 324h201l127 -324h-170l-80 187z" />
    <glyph glyph-name="Scedilla" unicode="&#x15e;" horiz-adv-x="1099" 
d="M504.5 176q156.5 0 189.5 168q14 66 -22.5 115t-97 95t-133 94t-173 148.5t-71.5 285.5t166 281.5t337 96.5t290 -123.5t67 -289.5l-213 -35q10 111 -14.5 156.5t-63 66t-114.5 20.5t-144 -42t-88 -134q-28 -130 138 -241.5t219.5 -155t111 -121.5t29.5 -224
q-27 -146 -124.5 -233.5t-240.5 -115.5q47 -155 -20.5 -267t-233.5 -112q-74 0 -134.5 33.5t-82.5 87.5l117 112q30 -61 81 -61q84 0 100.5 58t-3.5 134q-257 8 -389 199l114 172q61 -86 153.5 -127t249 -41z" />
    <glyph glyph-name="Scedilla" unicode="&#xf6c1;" horiz-adv-x="1099" 
d="M504.5 176q156.5 0 189.5 168q14 66 -22.5 115t-97 95t-133 94t-173 148.5t-71.5 285.5t166 281.5t337 96.5t290 -123.5t67 -289.5l-213 -35q10 111 -14.5 156.5t-63 66t-114.5 20.5t-144 -42t-88 -134q-28 -130 138 -241.5t219.5 -155t111 -121.5t29.5 -224
q-27 -146 -124.5 -233.5t-240.5 -115.5q47 -155 -20.5 -267t-233.5 -112q-74 0 -134.5 33.5t-82.5 87.5l117 112q30 -61 81 -61q84 0 100.5 58t-3.5 134q-257 8 -389 199l114 172q61 -86 153.5 -127t249 -41z" />
    <glyph glyph-name="scedilla" unicode="&#x15f;" horiz-adv-x="905" 
d="M92 -158q30 -61 102 -61q32 0 70 33t4 161q-216 19 -317 148l88 170q103 -137 303 -137q54 0 108 32.5t54 106.5q0 43 -31 72.5t-77 56.5t-176 94.5t-130 229.5t119 264t296 102t251 -94.5t57 -249.5q-52 -4 -190 -25q13 89 -9 125.5t-53 51t-72 14.5q-75 0 -129.5 -40
t-54.5 -95t31 -88t78 -61.5t100 -55.5t131 -87t78 -190t-77 -216.5t-200 -114.5q47 -157 -20.5 -268t-232.5 -111q-74 0 -134.5 33.5t-83.5 87.5z" />
    <glyph glyph-name="scedilla" unicode="&#xf6c2;" horiz-adv-x="905" 
d="M92 -158q30 -61 102 -61q32 0 70 33t4 161q-216 19 -317 148l88 170q103 -137 303 -137q54 0 108 32.5t54 106.5q0 43 -31 72.5t-77 56.5t-176 94.5t-130 229.5t119 264t296 102t251 -94.5t57 -249.5q-52 -4 -190 -25q13 89 -9 125.5t-53 51t-72 14.5q-75 0 -129.5 -40
t-54.5 -95t31 -88t78 -61.5t100 -55.5t131 -87t78 -190t-77 -216.5t-200 -114.5q47 -157 -20.5 -268t-232.5 -111q-74 0 -134.5 33.5t-83.5 87.5z" />
    <glyph glyph-name="Scaron" unicode="&#x160;" horiz-adv-x="1099" 
d="M652 1255q-76 0 -144 -42t-88 -134q-28 -128 153 -252q51 -35 105 -71t103 -76q175 -143 139 -342q-36 -179 -173 -272t-344 -93q-129 1 -237 51t-178 148l114 172q62 -86 154 -127t188 -41q217 0 250 168q14 66 -22 115q-56 74 -227 186q-172 113 -231 251
q-34 79 -17 189q29 182 165 279q137 96 339 96t296 -133q83 -114 60 -280l-213 -35q4 45 1 89q-11 154 -193 154zM762 1681l147 187h191l-262 -324h-201l-127 324h176z" />
    <glyph glyph-name="scaron" unicode="&#x161;" horiz-adv-x="905" 
d="M504 295q0 43 -38 79t-130 84t-138 85q-108 87 -108 211q0 156 119 258t295 102t251 -95t58 -249q-52 -4 -190 -25q28 191 -134 191q-78 0 -130 -39t-53 -95t40 -100t167 -106q125 -62 179 -151q31 -49 31 -127q0 -157 -114 -251t-266 -94q-272 0 -392 150l88 170
q103 -137 303 -137q54 0 108 32t54 107zM575 1350l148 186h190l-262 -324h-200l-127 324h176z" />
    <glyph glyph-name="Tcommaaccent" unicode="&#x162;" horiz-adv-x="1110" 
d="M1214 1434l-43 -205h-397l-262 -1229h-221l262 1229h-395l43 205h1013zM498 -82l-316 -324h-180l268 324h228z" />
    <glyph glyph-name="Tcommaaccent" unicode="&#x21a;" horiz-adv-x="1110" 
d="M1214 1434l-43 -205h-397l-262 -1229h-221l262 1229h-395l43 205h1013zM498 -82l-316 -324h-180l268 324h228z" />
    <glyph glyph-name="tcommaaccent" unicode="&#x163;" horiz-adv-x="724" 
d="M369 176q81 0 204 74v-193q-143 -84 -284 -84q-191 0 -211.5 108.5t-3.5 186.5l137 641h-148l39 178h148l39 181l235 61l-51 -242h272l-67 -178h-244l-131 -626q-12 -59 8.5 -83t57.5 -24zM401 -82l-307 -324h-190l268 324h229z" />
    <glyph glyph-name="tcommaaccent" unicode="&#x21b;" horiz-adv-x="724" 
d="M369 176q81 0 204 74v-193q-143 -84 -284 -84q-191 0 -211.5 108.5t-3.5 186.5l137 641h-148l39 178h148l39 181l235 61l-51 -242h272l-67 -178h-244l-131 -626q-12 -59 8.5 -83t57.5 -24zM401 -82l-307 -324h-190l268 324h229z" />
    <glyph glyph-name="Tcaron" unicode="&#x164;" horiz-adv-x="1110" 
d="M1214 1434l-43 -205h-397l-262 -1229h-221l262 1229h-395l43 205h1013zM754 1681l147 187h191l-263 -324h-200l-127 324h176z" />
    <glyph glyph-name="tcaron" unicode="&#x165;" horiz-adv-x="739" 
d="M362 176q82 0 205 74v-193q-143 -84 -284 -84q-191 0 -211.5 108.5t-3.5 186.5l137 641h-148l39 178h148l39 181l235 61l-51 -242h272l-67 -178h-244l-131 -626q-12 -59 8.5 -83t56.5 -24zM928 1546l-217 -372h-144l168 372h193z" />
    <glyph glyph-name="Tbar" unicode="&#x166;" horiz-adv-x="1110" 
d="M1214 1434l-43 -205h-397l-92 -432h305l-41 -189h-305l-129 -608h-221l129 608h-305l41 189h305l92 432h-395l43 205h1013z" />
    <glyph glyph-name="tbar" unicode="&#x167;" horiz-adv-x="792" 
d="M387 176q76 0 205 74v-193q-143 -84 -274 -84t-194 72.5t-32 222.5l58 267h-150l33 153h149l47 221h-147l39 178h147l39 181l236 61l-51 -242h272l-68 -178h-243l-47 -221h239l-33 -153h-239l-51 -252q-12 -59 8 -83t57 -24z" />
    <glyph glyph-name="Utilde" unicode="&#x168;" horiz-adv-x="1349" 
d="M559 178q154 0 241 77t120 230l200 949h221l-202 -955q-78 -367 -377 -470q-104 -36 -234 -36t-216 39q-174 78 -207 267q-15 92 8 200l202 955h222l-201 -949q-31 -147 19 -227t204 -80zM995 1751q63 0 99 78l120 -64q-88 -176 -239 -176q-43 0 -107 34t-96 34
q-31 0 -51 -22t-37 -56l-121 61q80 175 221 177q49 -1 97 -23q47 -22 69 -32t45 -11z" />
    <glyph glyph-name="utilde" unicode="&#x169;" horiz-adv-x="1130" 
d="M268 324q-30 -138 88 -138q55 0 145 47q91 47 140 109l158 745h223l-170 -823q-14 -74 43 -74q42 0 119 52l-33 -209q-79 -58 -170 -59q-90 -1 -138 37t-40 118q-181 -156 -361 -156q-128 0 -194 94t-27 283l156 737h223zM573 1487q55 0 119 -32t92 -34q63 0 99 78
l121 -63q-88 -176 -240 -176q-40 0 -107 34t-97 33q-49 0 -87 -78l-121 62q81 176 221 176z" />
    <glyph glyph-name="Umacron" unicode="&#x16a;" horiz-adv-x="1349" 
d="M559 178q154 0 241 77t120 230l200 949h221l-202 -955q-78 -367 -377 -470q-104 -36 -234 -36t-216 39q-174 78 -207 267q-15 92 8 200l202 955h222l-201 -949q-31 -147 19 -227t204 -80zM596 1626l35 160h545l-35 -160h-545z" />
    <glyph glyph-name="umacron" unicode="&#x16b;" horiz-adv-x="1130" 
d="M268 324q-30 -138 88 -138q55 0 145 47q91 47 140 109l158 745h223l-170 -823q-14 -74 43 -74q42 0 119 52l-33 -209q-79 -58 -170 -59q-90 -1 -138 37t-40 118q-181 -156 -361 -156q-128 0 -194 94t-27 283l156 737h223zM383 1294l35 160h545l-35 -160h-545z" />
    <glyph glyph-name="Ubreve" unicode="&#x16c;" horiz-adv-x="1349" 
d="M559 178q154 0 241 77t120 230l200 949h221l-202 -955q-78 -367 -377 -470q-104 -36 -234 -36t-216 39q-174 78 -207 267q-15 92 8 200l202 955h222l-201 -949q-31 -147 19 -227t204 -80zM885 1724q102 0 147 117h166q-37 -129 -126 -200t-216 -71t-184 72
q-57 70 -39 199h158q-8 -117 94 -117z" />
    <glyph glyph-name="ubreve" unicode="&#x16d;" horiz-adv-x="1130" 
d="M268 324q-30 -138 88 -138q55 0 145 47q91 47 140 109l158 745h223l-170 -823q-14 -74 43 -74q42 0 119 52l-33 -209q-79 -58 -170 -59q-90 -1 -138 37t-40 118q-181 -156 -361 -156q-128 0 -194 94t-27 283l156 737h223zM641 1239q-127 0 -184 71t-39 199h157
q-8 -117 95 -116q102 0 147 116h166q-37 -129 -126 -199t-216 -71z" />
    <glyph glyph-name="Uring" unicode="&#x16e;" horiz-adv-x="1349" 
d="M559 178q154 0 241 77t120 230l200 949h221l-202 -955q-78 -367 -377 -470q-104 -36 -234 -36t-216 39q-174 78 -207 267q-15 92 8 200l202 955h222l-201 -949q-31 -147 19 -227t204 -80zM899 1778q-76 0 -88 -74q-17 -74 57 -74t90 74q12 74 -59 74zM921 1886
q89 0 135 -52t30 -131q-15 -79 -82 -130t-158 -51q-90 0 -135 52t-29 130t83 130t156 52z" />
    <glyph glyph-name="uring" unicode="&#x16f;" horiz-adv-x="1130" 
d="M268 324q-30 -138 88 -138q55 0 145 47q91 47 140 109l158 745h223l-170 -823q-14 -74 43 -74q42 0 119 52l-33 -209q-79 -58 -170 -59q-90 -1 -138 37t-40 118q-181 -156 -361 -156q-128 0 -194 94t-27 283l156 737h223zM688 1448q-74 0 -86 -74q-16 -74 58 -74t90 74
q12 74 -62 74zM712 1556q89 0 135 -52t31 -128t-82 -130t-158 -54t-136 52t-29 130t83 130t156 52z" />
    <glyph glyph-name="Uhungarumlaut" unicode="&#x170;" horiz-adv-x="1349" 
d="M559 178q154 0 241 77t120 230l200 949h221l-202 -955q-78 -367 -377 -470q-104 -36 -234 -36t-216 39q-174 78 -207 267q-15 92 8 200l202 955h222l-201 -949q-31 -147 19 -227t204 -80zM1343 1868l-282 -324h-158l221 324h219zM1004 1868l-224 -324h-147l164 324h207z
" />
    <glyph glyph-name="uhungarumlaut" unicode="&#x171;" horiz-adv-x="1130" 
d="M268 324q-30 -138 88 -138q55 0 145 47q91 47 140 109l158 745h223l-170 -823q-14 -74 43 -74q42 0 119 52l-33 -209q-79 -58 -170 -59q-90 -1 -138 37t-40 118q-181 -156 -361 -156q-128 0 -194 94t-27 283l156 737h223zM1128 1536l-282 -324h-158l221 324h219z
M788 1536l-223 -324h-147l164 324h206z" />
    <glyph glyph-name="Uogonek" unicode="&#x172;" horiz-adv-x="1349" 
d="M322 -223q0 126 110 203q-192 27 -277 163t-42 336l202 955h222l-201 -949q-31 -147 19.5 -227t204.5 -80t240.5 77t119.5 230l200 949h221l-202 -955q-72 -326 -235 -405.5t-273 -91.5q-125 -83 -125 -147t50 -64t97 45l74 -109q-88 -100 -223 -100q-86 0 -134 46
t-48 124z" />
    <glyph glyph-name="uogonek" unicode="&#x173;" horiz-adv-x="1130" 
d="M501.5 233q89.5 47 139.5 109l158 745h223l-170 -823q-14 -74 43 -74q42 0 119 52l-33 -209q-219 -91 -219 -215q0 -47 50 -47t97 45l74 -109q-88 -100 -223 -100q-86 0 -134 46t-48 124q0 131 129 215q-82 37 -74 137q-181 -156 -361 -156q-129 0 -194 94.5t-27 282.5
l156 737h223l-162 -763q-16 -74 8.5 -106t79.5 -32q56 0 145.5 47z" />
    <glyph glyph-name="Wcircumflex" unicode="&#x174;" horiz-adv-x="1814" 
d="M1180 1434l45 -1123l477 1123h235l-630 -1434h-269l-49 1110l-520 -1110h-270l-21 1434h238l-4 -1123l524 1123h244zM975 1544h-184l262 324h200l127 -324h-170l-80 187z" />
    <glyph glyph-name="wcircumflex" unicode="&#x175;" horiz-adv-x="1564" 
d="M967 1087l51 -798l364 798h244l-534 -1087h-250l-56 793l-399 -793h-250l-67 1087h223l43 -790l375 790h256zM752 1212h-185l262 324h201l127 -324h-170l-80 187z" />
    <glyph glyph-name="Ycircumflex" unicode="&#x176;" horiz-adv-x="1077" 
d="M989 1434h240l-619 -877l-118 -557h-224l119 557l-244 877h238l172 -633zM578 1544h-185l262 324h201l127 -324h-170l-80 187z" />
    <glyph glyph-name="ycircumflex" unicode="&#x177;" horiz-adv-x="1118" 
d="M284 -27q-155 -1 -211 103t-22 274l156 737h223l-162 -763q-16 -74 8 -106t80 -32q55 0 145 47q91 47 140 109l158 745h223l-250 -1185q-78 -373 -487 -373q-234 0 -404 129l88 176q141 -108 334 -106q84 0 153 38t91 138l41 182q-149 -113 -304 -113zM520 1212h-184
l262 324h201l127 -324h-170l-80 187z" />
    <glyph glyph-name="Ydieresis" unicode="&#x178;" horiz-adv-x="1077" 
d="M989 1434h240l-619 -877l-118 -557h-224l119 557l-244 877h238l172 -633zM1001 1819l-43 -211h-182l43 211h182zM676 1819l-43 -211h-182l43 211h182z" />
    <glyph glyph-name="Zacute" unicode="&#x179;" horiz-adv-x="1132" 
d="M1210 1434l-30 -146l-914 -1083h668l-43 -205h-975l31 141l911 1088h-649l43 205h958zM1137 1868l-306 -324h-190l268 324h228z" />
    <glyph glyph-name="zacute" unicode="&#x17a;" horiz-adv-x="983" 
d="M958 1087l-30 -147l-670 -754h514l-39 -186h-815l31 141l669 760h-497l39 186h798zM983 1536l-305 -324h-191l269 324h227z" />
    <glyph glyph-name="Zdotaccent" unicode="&#x17b;" horiz-adv-x="1132" 
d="M1210 1434l-30 -146l-914 -1083h668l-43 -205h-975l31 141l911 1088h-649l43 205h958zM901 1819l-43 -211h-190l43 211h190z" />
    <glyph glyph-name="zdotaccent" unicode="&#x17c;" horiz-adv-x="983" 
d="M958 1087l-30 -147l-670 -754h514l-39 -186h-815l31 141l669 760h-497l39 186h798zM741 1481l-43 -211h-190l43 211h190z" />
    <glyph glyph-name="Zcaron" unicode="&#x17d;" horiz-adv-x="1132" 
d="M1210 1434l-30 -146l-914 -1083h668l-43 -205h-975l31 141l911 1088h-649l43 205h958zM778 1681l148 187h190l-262 -324h-201l-127 324h176z" />
    <glyph glyph-name="zcaron" unicode="&#x17e;" horiz-adv-x="983" 
d="M958 1087l-30 -147l-670 -754h514l-39 -186h-815l31 141l669 760h-497l39 186h798zM616 1350l148 186h190l-262 -324h-200l-127 324h176z" />
    <glyph glyph-name="longs" unicode="&#x17f;" horiz-adv-x="585" 
d="M715 1536q113 0 198 -35l-57 -180q-63 27 -144 27q-181 0 -223 -181l-290 -1370q-29 -135 -116 -201.5t-208 -66.5t-209 55l74 180q58 -36 116 -36t86.5 25.5t43.5 86.5l225 1067h-152l39 180h152l16 74q77 375 449 375z" />
    <glyph glyph-name="florin" unicode="&#x192;" 
d="M778 1460q211 0 293 -125t51 -270l-211 -37q16 106 -19.5 166.5t-149.5 60.5t-168 -65.5t-74 -161.5l-51 -242h456l-35 -170h-456l-131 -616h-222l132 616h-177l35 170h176l52 240q85 434 499 434z" />
    <glyph glyph-name="Aringacute" unicode="&#x1fa;" horiz-adv-x="1114" 
d="M328 537h385l-54 659zM729 338h-502l-170 -338h-235l739 1434h295l133 -1434h-233zM778.5 1780q-73.5 0 -90 -74t57 -74t90 74t-57 74zM724 1524q-91 0 -136 52t-31 120q27 133 164 180l199 235h223l-244 -247q87 -49 66 -158q-16 -77 -83 -129.5t-158 -52.5z" />
    <glyph glyph-name="aringacute" unicode="&#x1fb;" horiz-adv-x="1130" 
d="M602 1114q129 0 224.5 -26.5t185.5 -69.5l-164 -754q-19 -74 33 -74t129 52l-27 -209q-82 -60 -194 -60t-137 57.5t-21 98.5q-170 -156 -336 -156t-239.5 149t-20.5 432q52 283 211.5 421.5t355.5 138.5zM612 928q-72 0 -117.5 -15.5t-113.5 -83.5t-111 -274
q-43 -205 -14 -288t124 -83q109 0 261 152l119 553q-76 39 -148 39zM678 1450q-74 0 -90.5 -73.5t57.5 -73.5q76 -1 92 73q8 35 -8 54.5t-51 19.5zM623 1194q-90 0 -135.5 52t-28.5 130q25 121 155 166l205 240h201l-240 -244q53 -20 73.5 -64.5t11.5 -90.5
q-16 -84 -84 -136.5t-158 -52.5z" />
    <glyph glyph-name="AEacute" unicode="&#x1fc;" horiz-adv-x="1685" 
d="M389 537h350l138 645zM1704 1434l-43 -205h-553l-84 -395h528l-45 -207h-528l-90 -422h581l-43 -205h-802l71 338h-458l-254 -338h-258l1091 1434h887zM1479 1868l-305 -324h-191l268 324h228z" />
    <glyph glyph-name="aeacute" unicode="&#x1fd;" horiz-adv-x="1622" 
d="M1152 928q-100 0 -160 -66t-99 -205h385q29 139 1 205t-127 66zM377 184q67 0 131 41t110 88q-8 102 13 219q38 207 127 349l2 8q-76 39 -148 39t-117 -16q-46 -16 -88 -57q-94 -94 -137 -299q-43 -206 -14 -289t121 -83zM593 1114q187 0 343 -63q114 63 238 63
q220 0 297 -125q76 -125 32 -332l-37 -174h-614q-31 -176 15 -253q43 -68 157 -68q168 0 352 106l8 -190q-179 -105 -406 -105t-312 156q-66 -59 -163 -107t-195 -48t-155 34q-120 72 -138 283q-9 106 19 258q53 290 226 438q146 127 333 127zM1337 1536l-305 -324h-190
l268 324h227z" />
    <glyph glyph-name="Oslashacute" unicode="&#x1fe;" horiz-adv-x="1273" 
d="M942 1165q-61 92 -192 90q-158 0 -266 -123q-109 -123 -171 -417q-41 -205 -26 -324zM326 270q58 -92 204 -92q145 0 256 125t170 416q43 203 27 323zM797 1460q201 0 303 -110l127 149l90 -65l-154 -179q84 -184 19 -534q-77 -387 -276 -579q-177 -169 -433 -169
q-204 0 -307 111l-125 -147l-86 63l149 176q-83 181 -13 551t273 564q177 169 433 169zM1204 1868l-305 -324h-190l268 324h227z" />
    <glyph glyph-name="oslashacute" unicode="&#x1ff;" horiz-adv-x="1071" 
d="M562 928q-108 0 -179 -84t-119 -301q-25 -111 -24 -185l469 494q-39 76 -147 76zM411 160q111 0 180 84q70 84 118 301q25 111 24 186l-473 -493q40 -78 151 -78zM608 1114q170 0 260 -96l123 131l82 -62l-149 -157q57 -137 14 -385q-102 -572 -573 -572q-176 0 -263 99
l-129 -135l-73 63l149 158q-57 137 -14 385q103 571 573 571zM1018 1536l-305 -324h-191l269 324h227z" />
    <glyph glyph-name="Scommaaccent" unicode="&#x218;" horiz-adv-x="1099" 
d="M652 1255q-76 0 -144 -42t-88 -134q-28 -130 138 -241.5t219.5 -155t111 -121.5t31.5 -223q-35 -175 -170.5 -270t-346.5 -95q-129 0 -237.5 50.5t-177.5 148.5l114 172q61 -86 153.5 -127t249 -41t189.5 168q14 66 -22.5 115t-97 95t-133 94t-173 148.5t-71.5 285.5
t166 281.5t337 96.5t290 -123.5t67 -289.5l-213 -35q10 111 -14.5 156.5t-63 66t-114.5 20.5zM532 -82l-307 -324h-190l268 324h229z" />
    <glyph glyph-name="scommaaccent" unicode="&#x219;" horiz-adv-x="905" 
d="M504 295q0 43 -31 72.5t-77 56.5t-176 94.5t-130 229.5t119 264t296 102t251 -94.5t57 -249.5q-52 -4 -190 -25q13 89 -9 125.5t-53 51t-72 14.5q-75 0 -129.5 -40t-54.5 -95t31 -88t78 -61.5t100 -55.5t131 -87t78 -187q0 -160 -113 -254.5t-266 -94.5q-272 0 -393 150
l88 170q103 -137 303 -137q54 0 108 32.5t54 106.5zM418 -82l-307 -324h-191l268 324h230z" />
    <glyph glyph-name="circumflex" unicode="&#x2c6;" horiz-adv-x="1024" 
d="M367 1212h-185l262 324h201l127 -324h-170l-80 187z" />
    <glyph glyph-name="caron" unicode="&#x2c7;" horiz-adv-x="1024" 
d="M502 1350l147 186h191l-262 -324h-201l-127 324h176z" />
    <glyph glyph-name="breve" unicode="&#x2d8;" horiz-adv-x="1024" 
d="M481 1239q-127 0 -184 70.5t-39 199.5h158q-8 -117 94 -116.5t147 116.5h166q-37 -129 -126 -199.5t-216 -70.5z" />
    <glyph glyph-name="dotaccent" unicode="&#x2d9;" horiz-adv-x="1024" 
d="M627 1481l-43 -211h-191l43 211h191z" />
    <glyph glyph-name="ring" unicode="&#x2da;" horiz-adv-x="1024" 
d="M522 1448q-74 0 -86 -74q-16 -74 58 -74t90 74q12 74 -62 74zM546 1556q89 0 135 -52t31 -129t-83 -130t-158 -53t-135 52t-28.5 130t83 130t155.5 52z" />
    <glyph glyph-name="ogonek" unicode="&#x2db;" horiz-adv-x="1024" 
d="M492 -182q0 -47 49 -47t98 45l74 -109q-88 -100 -224 -100q-86 0 -134 46t-48 124q0 138 144 223h198q-157 -88 -157 -182z" />
    <glyph glyph-name="tilde" unicode="&#x2dc;" horiz-adv-x="1024" 
d="M412 1487q47 0 95 -22.5t70.5 -33t45.5 -10.5q63 0 98 78l121 -63q-88 -176 -240 -176q-42 0 -105.5 33.5t-95.5 33.5q-33 0 -53 -21.5t-37 -56.5l-121 62q81 176 222 176z" />
    <glyph glyph-name="hungarumlaut" unicode="&#x2dd;" horiz-adv-x="1024" 
d="M948 1536l-282 -324h-158l221 324h219zM608 1536l-223 -324h-147l163 324h207z" />
    <glyph glyph-name="Delta" unicode="&#x394;" horiz-adv-x="1097" 
d="M166 199h559l-74 962zM571 1434h256l129 -1434h-1120z" />
    <glyph glyph-name="Delta" unicode="&#x2206;" horiz-adv-x="1097" 
d="M166 199h559l-74 962zM571 1434h256l129 -1434h-1120z" />
    <glyph glyph-name="Omega" unicode="&#x3a9;" horiz-adv-x="1286" 
d="M86 551q0 89 30 239t158 410t523 260q417 0 417 -442q0 -289 -102 -498t-248 -321h219q-37 -180 -41 -199h-491q10 45 19.5 90t19.5 90q130 80 219 200.5t129 311.5q41 191 41 320t-60.5 186t-148.5 57t-214 -49.5t-218 -480.5q-27 -121 -27 -233q0 -191 152 -312
l-39 -180h-487l40 199h230q-121 135 -121 352z" />
    <glyph glyph-name="Omega" unicode="&#x2126;" horiz-adv-x="1286" 
d="M86 551q0 89 30 239t158 410t523 260q417 0 417 -442q0 -289 -102 -498t-248 -321h219q-37 -180 -41 -199h-491q10 45 19.5 90t19.5 90q130 80 219 200.5t129 311.5q41 191 41 320t-60.5 186t-148.5 57t-214 -49.5t-218 -480.5q-27 -121 -27 -233q0 -191 152 -312
l-39 -180h-487l40 199h230q-121 135 -121 352z" />
    <glyph glyph-name="pi" unicode="&#x3c0;" horiz-adv-x="1253" 
d="M115 1087h1173l-41 -196h-184l-191 -891h-219l191 891h-367l-190 -891h-219l190 891h-184z" />
    <glyph glyph-name="Wgrave" unicode="&#x1e80;" horiz-adv-x="1814" 
d="M1180 1434l45 -1123l477 1123h235l-630 -1434h-269l-49 1110l-520 -1110h-270l-21 1434h238l-4 -1123l524 1123h244zM1030 1868l133 -324h-182l-174 324h223z" />
    <glyph glyph-name="wgrave" unicode="&#x1e81;" horiz-adv-x="1564" 
d="M967 1087l51 -798l364 798h244l-534 -1087h-250l-56 793l-399 -793h-250l-67 1087h223l43 -790l375 790h256zM811 1536l133 -324h-182l-174 324h223z" />
    <glyph glyph-name="Wacute" unicode="&#x1e82;" horiz-adv-x="1814" 
d="M1180 1434l45 -1123l477 1123h235l-630 -1434h-269l-49 1110l-520 -1110h-270l-21 1434h238l-4 -1123l524 1123h244zM1481 1868l-305 -324h-191l268 324h228z" />
    <glyph glyph-name="wacute" unicode="&#x1e83;" horiz-adv-x="1564" 
d="M967 1087l51 -798l364 798h244l-534 -1087h-250l-56 793l-399 -793h-250l-67 1087h223l43 -790l375 790h256zM1260 1536l-306 -324h-190l268 324h228z" />
    <glyph glyph-name="Wdieresis" unicode="&#x1e84;" horiz-adv-x="1814" 
d="M1180 1434l45 -1123l477 1123h235l-630 -1434h-269l-49 1110l-520 -1110h-270l-21 1434h238l-4 -1123l524 1123h244zM1395 1819l-43 -211h-183l43 211h183zM1069 1819l-43 -211h-182l43 211h182z" />
    <glyph glyph-name="wdieresis" unicode="&#x1e85;" horiz-adv-x="1564" 
d="M967 1087l51 -798l364 798h244l-534 -1087h-250l-56 793l-399 -793h-250l-67 1087h223l43 -790l375 790h256zM1176 1481l-43 -211h-183l43 211h183zM850 1481l-43 -211h-182l43 211h182z" />
    <glyph glyph-name="Ygrave" unicode="&#x1ef2;" horiz-adv-x="1077" 
d="M989 1434h240l-619 -877l-118 -557h-224l119 557l-244 877h238l172 -633zM662 1868l133 -324h-183l-174 324h224z" />
    <glyph glyph-name="ygrave" unicode="&#x1ef3;" horiz-adv-x="1118" 
d="M284 -27q-155 -1 -211 103t-22 274l156 737h223l-162 -763q-16 -74 8 -106t80 -32q55 0 145 47q91 47 140 109l158 745h223l-250 -1185q-78 -373 -487 -373q-234 0 -404 129l88 176q141 -108 334 -106q84 0 153 38t91 138l41 182q-149 -113 -304 -113zM600 1536l133 -324
h-182l-174 324h223z" />
    <glyph glyph-name="endash" unicode="&#x2013;" horiz-adv-x="1140" 
d="M952 584h-825l43 194h825z" />
    <glyph glyph-name="emdash" unicode="&#x2014;" horiz-adv-x="1916" 
d="M1729 584h-1602l43 194h1602z" />
    <glyph glyph-name="quoteleft" unicode="&#x2018;" horiz-adv-x="481" 
d="M119 948l252 486h178l-209 -486h-221z" />
    <glyph glyph-name="quoteright" unicode="&#x2019;" horiz-adv-x="481" 
d="M547 1434l-252 -486h-178l209 486h221z" />
    <glyph glyph-name="quotesinglbase" unicode="&#x201a;" horiz-adv-x="483" 
d="M283 137l-252 -485h-178l208 485h222z" />
    <glyph glyph-name="quotedblleft" unicode="&#x201c;" horiz-adv-x="876" 
d="M498 948l252 486h178l-205 -486h-225zM82 948l309 486h180l-264 -486h-225z" />
    <glyph glyph-name="quotedblright" unicode="&#x201d;" horiz-adv-x="876" 
d="M559 1434l-252 -486h-180l205 486h227zM973 1434l-309 -486h-179l263 486h225z" />
    <glyph glyph-name="quotedblbase" unicode="&#x201e;" horiz-adv-x="876" 
d="M262 137l-252 -485h-180l205 485h227zM676 137l-309 -485h-179l263 485h225z" />
    <glyph glyph-name="dagger" unicode="&#x2020;" horiz-adv-x="870" 
d="M889 1067h-271l-112 -528h-197l113 528h-275l33 160h275l45 207h196l-45 -207h271z" />
    <glyph glyph-name="daggerdbl" unicode="&#x2021;" horiz-adv-x="870" 
d="M506 539h-197l45 209h-233l33 159h233l35 160h-275l33 160h275l45 207h196l-45 -207h271l-33 -160h-271l-34 -160h229l-33 -159h-229z" />
    <glyph glyph-name="bullet" unicode="&#x2022;" horiz-adv-x="784" 
d="M641 682q-21 -103 -113 -179.5t-201 -76.5t-165.5 74t-34.5 181q22 106 112.5 181.5t195.5 75.5t166 -76.5t40 -179.5z" />
    <glyph glyph-name="ellipsis" unicode="&#x2026;" horiz-adv-x="1503" 
d="M1278 238l-51 -238h-236l51 238h236zM768 238l-51 -238h-236l51 238h236zM256 238l-51 -238h-236l51 238h236z" />
    <glyph glyph-name="perthousand" unicode="&#x2030;" horiz-adv-x="2207" 
d="M994 -27q-96 0 -161 76t-42 236q38 295 160.5 352t220.5 57t162.5 -75.5t41.5 -235.5q-38 -295 -162 -352.5t-220 -57.5zM1042 127q57 0 102.5 55.5t61.5 184.5q16 98 -4 136t-78 38t-102.5 -54.5t-60.5 -183.5q-16 -98 4 -137t77 -39zM366 739q-98 0 -162.5 76
t-39.5 238q38 295 161.5 351t206.5 56q113 2 176.5 -73.5t39.5 -237.5q-39 -295 -161.5 -352.5t-220.5 -57.5zM1475 1434l-1217 -1434h-190l1214 1434h193zM415 893q56 0 102.5 55.5t62.5 169.5t-4.5 152.5t-77.5 38.5t-102.5 -55.5t-61.5 -184.5q-16 -98 4.5 -137t76.5 -39
zM1696 -27q-96 0 -161 76t-42 236q38 294 161.5 351.5t221.5 57.5t161.5 -75.5t41.5 -235.5q-38 -294 -162.5 -352t-220.5 -58zM1745 127q57 0 102 55.5t61 169.5t-4 151.5t-77 37.5t-102.5 -54.5t-61.5 -183.5q-16 -98 4.5 -137t77.5 -39z" />
    <glyph glyph-name="guilsinglleft" unicode="&#x2039;" horiz-adv-x="751" 
d="M395 137l-327 486l479 464h215l-447 -464l267 -486h-187z" />
    <glyph glyph-name="guilsinglright" unicode="&#x203a;" horiz-adv-x="751" 
d="M356 1087l328 -485l-479 -465h-215l446 465l-266 485h186z" />
    <glyph glyph-name="fraction" unicode="&#x2044;" horiz-adv-x="1097" 
d="M1249 1434l-1214 -1434h-187l1211 1434h190z" />
    <glyph glyph-name="Euro" unicode="&#x20ac;" 
d="M618 178q153 0 345 109l-5 -211q-196 -103 -422 -103t-329 138.5t-90 367.5h-144l29 139h127q11 71 18 103l11 53h-127l30 139h134q86 287 236 417t386 130q200 0 278.5 -123t49.5 -272l-211 -37q16 106 -17.5 166.5t-158.5 60.5t-203 -79.5t-131 -262.5h489l-55 -139
h-469l-33 -156h443l-54 -139h-403q-8 -170 57.5 -235.5t218.5 -65.5z" />
    <glyph glyph-name="trademark" unicode="&#x2122;" horiz-adv-x="1695" 
d="M1057 764l-60 407l-153 -464h-174l245 727h193l74 -453l266 453h194l-59 -727h-170l43 464l-231 -407h-168zM782 1434l-30 -148h-215l-123 -579h-168l123 579h-211l30 148h594z" />
    <glyph glyph-name="partialdiff" unicode="&#x2202;" horiz-adv-x="1132" 
d="M252 391q0 -92 44 -152.5t150 -60.5t188.5 95.5t125.5 312.5q-101 73 -258 73q-113 0 -181.5 -65.5t-68.5 -202.5zM815 993q0 262 -205 262q-172 0 -231 -190l-219 45q104 350 448 350q313 0 373.5 -175t60.5 -285t-11 -219t-56 -291.5t-180.5 -349.5t-356.5 -167
q-180 0 -295.5 106t-115.5 286q0 255 135.5 375t324.5 120q190 0 308 -67q20 118 20 200z" />
    <glyph glyph-name="product" unicode="&#x220f;" horiz-adv-x="1376" 
d="M1350 1434l-306 -1434h-221l262 1229h-577l-262 -1229h-221l305 1434h1020z" />
    <glyph glyph-name="summation" unicode="&#x2211;" horiz-adv-x="1077" 
d="M1120 1434l-43 -205h-604l320 -510l-514 -514h608l-43 -205h-912l33 152l586 569l-348 559l33 154h884z" />
    <glyph glyph-name="minus" unicode="&#x2212;" 
d="M938 584h-834l41 194h836z" />
    <glyph glyph-name="radical" unicode="&#x221a;" horiz-adv-x="1241" 
d="M135 1087h303l70 -847l616 1194h230l-764 -1434h-271l-88 891h-137z" />
    <glyph glyph-name="infinity" unicode="&#x221e;" horiz-adv-x="1345" 
d="M980 795q-78 0 -216 -111q90 -111 170 -111q45 0 83 26t52 85q12 59 -15.5 85t-73.5 26zM413 795q-46 0 -84 -26t-51 -85t14.5 -85t73.5 -26q76 0 218 111q-45 53 -85 82t-86 29zM700 817q178 150 314 150q209 0 232.5 -107.5t2 -209t-117.5 -175.5t-236 -74t-250 150
q-86 -72 -162.5 -111t-163.5 -39q-127 0 -191.5 73t-35.5 210t125.5 210t202.5 73t166.5 -39t113.5 -111z" />
    <glyph glyph-name="integral" unicode="&#x222b;" horiz-adv-x="702" 
d="M745 1370q-163 0 -202 -186l-262 -1239q-59 -268 -211 -323.5t-239 -55.5t-167 26l72 189q52 -21 121 -21q161 0 200 187l244 1145q50 245 159 353.5t316 108.5q86 0 160 -24l-70 -180q-50 20 -121 20z" />
    <glyph glyph-name="approxequal" unicode="&#x2248;" 
d="M383 809q-73 0 -131 -98q-39 16 -77 31.5t-77 31.5q53 98 129 159.5t189 61.5q69 0 153 -26.5t123 -38.5t74 -12q71 0 127 96l151 -64q-117 -217 -329 -217q-54 0 -175.5 38t-156.5 38zM344 612q74 0 194.5 -37.5t149.5 -37.5q78 0 131 96l154 -62q-115 -221 -322 -221
q-54 0 -137.5 26.5t-125.5 39t-77 12.5q-71 0 -131 -98q-54 21 -151 63q116 219 315 219z" />
    <glyph glyph-name="notequal" unicode="&#x2260;" 
d="M891 354h-531l-196 -237h-160l195 237h-144l41 195h258l199 242h-406l41 194h521l196 238h170l-198 -238h147l-41 -194h-264l-201 -242h414z" />
    <glyph glyph-name="lessequal" unicode="&#x2264;" 
d="M813 0h-833l40 195h836zM1001 881l-684 -211l596 -211l-41 -189l-774 289l52 242l897 289z" />
    <glyph glyph-name="greaterequal" unicode="&#x2265;" 
d="M815 2h-833l41 195h835zM82 477l684 211l-596 211l41 191l774 -289l-51 -242l-897 -289z" />
    <glyph glyph-name="lozenge" unicode="&#x25ca;" 
d="M420 207l399 526l-162 492l-399 -527zM274 0l-237 717l543 717h227l233 -719l-538 -715h-228z" />
    <glyph glyph-name="f_f" unicode="&#xfb00;" horiz-adv-x="1273" 
d="M-140 -272q50 0 81.5 25.5t46.5 86.5l223 1067h-152l39 180h152l16 74q39 191 165 283t304 92q113 0 199 -35l-78 -180q-63 27 -144 27q-181 0 -223 -181l-16 -80h410l16 74q39 190 164 282.5t305 92.5q113 0 199 -35l-78 -180q-63 27 -145 27q-180 0 -222 -181l-16 -80
h268l-65 -180h-242l-233 -1110q-26 -128 -120 -198t-210 -70t-205 55l72 178q70 -34 120 -34q102 0 130 112l223 1067h-410l-233 -1110q-26 -127 -118.5 -197.5t-209.5 -70.5t-205 55l72 178q70 -34 120 -34z" />
    <glyph glyph-name="f_f_i" unicode="&#xfb03;" horiz-adv-x="1830" 
d="M1817 1475l-52 -242h-223l51 242h224zM-142 -272q50 0 81.5 25.5t46.5 86.5l225 1067h-152l39 180h152l16 74q39 191 165 283t304 92q113 0 199 -35l-78 -180q-63 27 -144 27q-181 0 -223 -181l-16 -80h410l16 74q39 190 164 282.5t305 92.5q113 0 199 -35l-78 -180
q-63 27 -145 27q-180 0 -222 -181l-16 -80h629l-232 -1087h-223l193 907h-406l-236 -1110q-27 -129 -120 -198.5t-209 -69.5t-205 55l72 178q70 -34 120 -34q103 0 129 112l226 1067h-410l-235 -1110q-26 -127 -118.5 -197.5t-209.5 -70.5t-205 55l72 178q70 -34 120 -34z
" />
    <glyph glyph-name="f_f_l" unicode="&#xfb04;" horiz-adv-x="1894" 
d="M1569 191.5q18 -13.5 61 -13.5t131 45l-24 -198q-91 -52 -204 -52q-114 0 -170 65.5t-28 203.5l264 1253l234 41l-272 -1286q-10 -45 8 -58.5zM-144 -272q50 0 81.5 25.5t46.5 86.5l227 1067h-152l39 180h152l16 74q39 191 165 283t304 92q113 0 199 -35l-78 -180
q-63 27 -144 27q-181 0 -223 -181l-16 -80h410l16 74q39 190 164 282.5t305 92.5q113 0 199 -35l-78 -180q-63 27 -145 27q-180 0 -222 -181l-16 -80h268l-65 -180h-242l-238 -1110q-27 -129 -121 -198.5t-209 -69.5t-204 55l72 178q70 -34 120 -34q104 0 129 112l228 1067
h-410l-237 -1110q-26 -127 -118.5 -197.5t-209.5 -70.5t-205 55l72 178q70 -34 120 -34z" />
    </font>
</defs>
</svg>
